<svg width="76" height="71" viewBox="0 0 76 71" fill="none" xmlns="http://www.w3.org/2000/svg">
<path d="M41.4451 25.8018C49.8408 8.70922 58.0616 8.32075 61.1226 10.2631C67.1569 12.8529 63.9554 22.8884 62.4345 28.0679C57.1111 46.1965 44.3969 64.9724 29.9668 67.886C19.3634 70.0268 5.55176 68.6208 3.25599 57.938C1.28923 48.786 8.97742 42.6355 16.1925 41.0169C23.4076 39.3983 33.0494 42.8945 41.4451 25.8018Z" fill="#A33795"/>
<path fill-rule="evenodd" clip-rule="evenodd" d="M61.1226 10.2631C66.9525 12.7651 64.1617 22.2169 62.5944 27.5253C62.5394 27.7114 62.486 27.8925 62.4345 28.0679C57.1111 46.1965 44.3969 64.9725 29.9668 67.886C19.3634 70.0268 5.55176 68.6208 3.25599 57.938C1.28923 48.786 8.97742 42.6355 16.1925 41.0169C17.6634 40.6869 19.2352 40.5695 20.8767 40.4469C27.2871 39.9681 34.7611 39.4098 41.4451 25.8018C49.8408 8.70923 58.0616 8.32076 61.1226 10.2631ZM52.2928 9.15748C56.2129 6.91948 59.7739 7.12275 62.0539 8.48797C66.2079 10.362 66.8515 14.7295 66.6072 18.3298C66.3712 21.8062 65.2687 25.5349 64.5206 28.0647C64.4626 28.2611 64.4067 28.4502 64.3534 28.6314C61.6294 37.9079 57.0144 47.3627 51.1995 54.9039C45.4158 62.4044 38.2533 68.2532 30.3626 69.8464C24.8603 70.9573 18.4184 71.1771 12.9564 69.6467C7.44788 68.1033 2.65595 64.6648 1.30063 58.3582C0.165926 53.078 1.84285 48.6163 4.78999 45.3195C7.68888 42.0767 11.8077 39.9509 15.7547 39.0654C17.3832 38.7001 19.1375 38.5699 20.7847 38.4477C21.142 38.4212 21.4942 38.395 21.8391 38.3669C23.8522 38.203 25.7973 37.9684 27.7394 37.3162C31.4812 36.0595 35.6286 33.1072 39.65 24.9201C43.9406 16.1849 48.3237 11.4234 52.2928 9.15748Z" fill="#800771"/>
<path fill-rule="evenodd" clip-rule="evenodd" d="M4.03586 60.3617C7.77534 68.8259 20.225 69.8528 29.9666 67.8859C44.3968 64.9724 57.111 46.1964 62.4343 28.0679C62.4859 27.8924 62.5393 27.7113 62.5943 27.5252C64.1616 22.2168 66.9524 12.765 61.1224 10.263C61.0056 10.1889 60.8813 10.1182 60.7497 10.0516C61.5354 13.987 59.9463 19.3691 58.9012 22.9088C58.8462 23.0949 58.7928 23.276 58.7412 23.4515C53.4179 41.58 40.7037 60.356 26.2736 63.2695C18.7128 64.7961 9.52087 64.5192 4.03586 60.3617Z" fill="#8E2A82"/>
<path d="M39.2098 55.9718C38.7816 56.4667 38.0333 56.5208 37.5383 56.0925C37.0434 55.6643 36.9894 54.916 37.4176 54.4211C37.8458 53.9261 38.5941 53.8721 39.0891 54.3003C39.584 54.7285 39.6381 55.4769 39.2098 55.9718Z" fill="#6D1863"/>
<path d="M47.2764 51.6377C46.7335 52.2651 45.7847 52.3337 45.1572 51.7908C44.5297 51.2479 44.4612 50.2991 45.0041 49.6716C45.547 49.0442 46.4958 48.9756 47.1233 49.5185C47.7507 50.0614 47.8193 51.0102 47.2764 51.6377Z" fill="#6D1863"/>
<path d="M53.5558 43.6508C53.0129 44.2782 52.0641 44.3468 51.4366 43.8039C50.8092 43.261 50.7406 42.3122 51.2835 41.6847C51.8264 41.0573 52.7752 40.9887 53.4027 41.5316C54.0302 42.0745 54.0987 43.0233 53.5558 43.6508Z" fill="#6D1863"/>
<path d="M36.6934 60.7489C36.1505 61.3764 35.2017 61.4449 34.5743 60.902C33.9468 60.3591 33.8783 59.4104 34.4212 58.7829C34.9641 58.1554 35.9128 58.0869 36.5403 58.6298C37.1678 59.1727 37.2363 60.1215 36.6934 60.7489Z" fill="#6D1863"/>
<path d="M43.3234 55.1518C42.9162 55.6224 42.2046 55.6738 41.734 55.2666C41.2634 54.8594 41.212 54.1479 41.6192 53.6773C42.0264 53.2067 42.7379 53.1552 43.2085 53.5624C43.6791 53.9696 43.7305 54.6812 43.3234 55.1518Z" fill="#6D1863"/>
<path d="M41.4413 59.3273C41.0341 59.7979 40.3225 59.8493 39.8519 59.4422C39.3813 59.035 39.3299 58.3234 39.7371 57.8528C40.1443 57.3822 40.8559 57.3308 41.3265 57.738C41.7971 58.1451 41.8485 58.8567 41.4413 59.3273Z" fill="#6D1863"/>
<path d="M49.5393 48.2385C49.1321 48.7091 48.4205 48.7605 47.9499 48.3533C47.4793 47.9461 47.4279 47.2346 47.8351 46.764C48.2422 46.2934 48.9538 46.2419 49.4244 46.6491C49.895 47.0563 49.9464 47.7679 49.5393 48.2385Z" fill="#6D1863"/>
<path d="M42.6905 51.4697C42.2833 51.9403 41.5717 51.9917 41.1011 51.5846C40.6305 51.1774 40.5791 50.4658 40.9862 49.9952C41.3934 49.5246 42.105 49.4732 42.5756 49.8804C43.0462 50.2875 43.0976 50.9991 42.6905 51.4697Z" fill="#6D1863"/>
<path d="M32.6111 64.3336C32.0681 64.9611 31.1194 65.0296 30.4919 64.4867C29.8644 63.9438 29.7959 62.995 30.3388 62.3676C30.8817 61.7401 31.8305 61.6715 32.4579 62.2144C33.0854 62.7573 33.154 63.7061 32.6111 64.3336Z" fill="#6D1863"/>
<path d="M32.5687 58.9631C32.0258 59.5906 31.077 59.6591 30.4495 59.1162C29.8221 58.5733 29.7535 57.6246 30.2964 56.9971C30.8393 56.3696 31.7881 56.3011 32.4156 56.844C33.043 57.3869 33.1116 58.3357 32.5687 58.9631Z" fill="#6D1863"/>
<path d="M26.8537 66.1254C26.3108 66.7528 25.362 66.8214 24.7345 66.2785C24.107 65.7356 24.0385 64.7868 24.5814 64.1593C25.1243 63.5319 26.0731 63.4633 26.7005 64.0062C27.328 64.5491 27.3966 65.4979 26.8537 66.1254Z" fill="#6D1863"/>
<path d="M27.3744 61.6691C26.943 62.1677 26.1891 62.2222 25.6905 61.7908C25.1919 61.3594 25.1375 60.6055 25.5689 60.1069C26.0002 59.6083 26.7542 59.5538 27.2527 59.9852C27.7513 60.4166 27.8058 61.1705 27.3744 61.6691Z" fill="#6D1863"/>
<path d="M55.053 39.211C54.7844 39.5214 54.315 39.5553 54.0046 39.2868C53.6942 39.0182 53.6603 38.5488 53.9288 38.2384C54.1974 37.928 54.6668 37.8941 54.9772 38.1626C55.2876 38.4312 55.3215 38.9006 55.053 39.211Z" fill="#6D1863"/>
<path d="M48.9771 44.6017C48.7085 44.9121 48.2391 44.946 47.9287 44.6774C47.6183 44.4088 47.5844 43.9395 47.8529 43.629C48.1215 43.3186 48.5909 43.2847 48.9013 43.5533C49.2117 43.8219 49.2456 44.2912 48.9771 44.6017Z" fill="#6D1863"/>
<path d="M20.9387 66.4657C20.5316 66.9363 19.82 66.9877 19.3494 66.5805C18.8788 66.1734 18.8274 65.4618 19.2345 64.9912C19.6417 64.5206 20.3533 64.4692 20.8239 64.8763C21.2945 65.2835 21.3459 65.9951 20.9387 66.4657Z" fill="#6D1863"/>
<path d="M21.5242 44.5318C23.2307 47.0711 21.3056 51.3531 17.2243 54.0958C13.1431 56.8386 8.45118 57.0035 6.74467 54.4642C5.03816 51.9249 6.96326 47.6429 11.0445 44.9001C15.1258 42.1574 19.8177 41.9925 21.5242 44.5318Z" fill="#C448B5"/>
<path d="M53.5859 15.505C55.958 17.4372 53.0619 25.9442 46.5 34.0001C39.938 42.056 31 43.5 28.4999 43.0001C26.1278 41.0679 33.5 43.5 39.4999 34.0001C44.4998 24.5001 51.2138 13.5728 53.5859 15.505Z" fill="#C448B5"/>
<path fill-rule="evenodd" clip-rule="evenodd" d="M14.0826 47.2328C14.7311 48.127 14.5318 49.3776 13.6375 50.026C13.0247 50.4703 12.5653 50.9881 12.2317 51.583C11.6915 52.5465 10.4725 52.8896 9.50905 52.3494C8.54559 51.8092 8.20247 50.5902 8.74267 49.6268C9.37282 48.5029 10.2309 47.5552 11.2895 46.7877C12.1837 46.1393 13.4342 46.3386 14.0826 47.2328Z" fill="white"/>
<path fill-rule="evenodd" clip-rule="evenodd" d="M70.5229 8.14902C65.4134 7.46775 62.5548 10.1376 61.8182 11.3654C61.534 11.839 60.9197 11.9925 60.4462 11.7084C59.9726 11.4242 59.819 10.81 60.1032 10.3364C61.2131 8.48657 64.8174 5.37059 70.7872 6.16656C71.3346 6.23955 71.7193 6.74251 71.6463 7.28995C71.5733 7.83739 71.0703 8.22201 70.5229 8.14902Z" fill="#537003"/>
<path d="M63.044 9.36265C56.7499 2.93748 50.6874 9.36265 45.6251 10.875C49.0949 13.5025 60.3987 16.6624 63.044 9.36265Z" fill="#A3D711"/>
<path fill-rule="evenodd" clip-rule="evenodd" d="M58.5571 5.69168C60.3248 6.01182 62.0638 6.93309 63.7584 8.66288C64.0274 8.93748 64.1151 9.34196 63.9842 9.70337C62.4354 13.9771 58.3477 15.0557 54.5865 14.8399C50.8247 14.6241 46.9344 13.1209 45.0214 11.6722C44.7211 11.4448 44.574 11.0678 44.6411 10.697C44.7081 10.3263 44.9779 10.0247 45.3389 9.91685C46.4968 9.57091 47.7377 8.93479 49.1371 8.20934C49.1637 8.19557 49.1903 8.18177 49.217 8.16795C50.5596 7.47186 52.0297 6.70966 53.5524 6.19493C55.1167 5.66614 56.8024 5.37391 58.5571 5.69168ZM47.897 11.0622C49.6894 11.927 52.2157 12.7006 54.701 12.8432C57.8899 13.0261 60.6157 12.1762 61.8581 9.6063C60.578 8.43591 59.3569 7.86907 58.2007 7.65967C56.8902 7.42234 55.5637 7.62621 54.1929 8.08961C52.8159 8.55506 51.4611 9.2574 50.0735 9.97669L50.0511 9.9883C49.3439 10.3549 48.6212 10.7295 47.897 11.0622Z" fill="#709604"/>
<path d="M63.3274 9.46752C61.2467 11.3965 58.1249 19.6875 67.8123 25.5C66.8749 21.4375 73.4374 11.25 63.3274 9.46752Z" fill="#8CBA08"/>
<path fill-rule="evenodd" clip-rule="evenodd" d="M60.1584 16.0834C59.973 12.7752 61.3679 9.92059 62.6476 8.7342C62.8771 8.52146 63.1929 8.42841 63.5011 8.48274C66.2089 8.96016 67.9843 10.0383 69.0011 11.6101C69.9971 13.1496 70.1434 14.9803 70.0065 16.7078C69.8935 18.1338 69.5734 19.615 69.2876 20.9372C69.2284 21.2112 69.1707 21.4783 69.1166 21.7367C68.9549 22.5087 68.8241 23.2048 68.7597 23.8216C68.6946 24.4455 68.7054 24.923 68.7867 25.2752C68.8769 25.6661 68.7248 26.073 68.4003 26.3089C68.0758 26.5448 67.6418 26.5639 67.2978 26.3575C62.203 23.3006 60.3494 19.4914 60.1584 16.0834ZM66.7715 23.605C66.8474 22.8828 66.9959 22.1058 67.159 21.3268C67.2187 21.0417 67.2803 20.7561 67.3419 20.4704C67.6265 19.1502 67.9113 17.8291 68.0127 16.5498C68.1355 14.9998 67.9682 13.6954 67.3219 12.6965C66.7455 11.8055 65.6846 11.002 63.684 10.5576C62.9202 11.5284 62.0197 13.5532 62.1552 15.9715C62.2866 18.3155 63.4018 21.0975 66.7715 23.605Z" fill="#709604"/>
<path d="M62.807 9.46596C60.0372 8.85044 54.4052 10.1123 54.0359 20.0836C58.3445 19.4681 66.1308 16.4828 62.807 9.46596Z" fill="#CDFD44"/>
<path fill-rule="evenodd" clip-rule="evenodd" d="M56.885 10.0333C58.9618 8.32036 61.3909 8.1269 63.0239 8.48979C63.3252 8.55673 63.5786 8.75901 63.7107 9.03789C64.621 10.9597 64.8124 12.7029 64.4128 14.2489C64.016 15.7841 63.0678 17.0036 61.9184 17.948C59.6502 19.8114 56.4223 20.7529 54.1773 21.0736C53.8839 21.1155 53.5871 21.0251 53.3668 20.8268C53.1466 20.6285 53.0256 20.3428 53.0366 20.0466C53.2279 14.882 54.7936 11.7582 56.885 10.0333ZM55.1137 18.8698C56.9744 18.4558 59.1257 17.6539 60.6488 16.4026C61.569 15.6466 62.2135 14.7657 62.4764 13.7484C62.7104 12.8434 62.6678 11.7324 62.1104 10.364C60.9914 10.2432 59.481 10.4846 58.1575 11.5762C56.785 12.7082 55.474 14.8722 55.1137 18.8698Z" fill="#709604"/>
</svg>
