<svg width="52" height="57" viewBox="0 0 52 57" fill="none" xmlns="http://www.w3.org/2000/svg">
<path d="M28.1008 2.90084C28.0385 2.38912 27.6063 2 27.0908 2H24.9272C24.4042 2 23.9678 2.40121 23.9117 2.92122C23.7191 4.70378 23.1806 8.69599 22 11.5C20.928 14.046 17.8207 17.2746 14.0187 19.5333C6.5 24 2 28.9612 2 36C2 46.4934 12.7452 55 26 55C39.2548 55 50 46.4934 50 36C50 28.9082 44.5629 23.8037 37.8187 19.4597C34 17 31.0638 14.156 30 11.5C28.9072 8.77153 28.3194 4.69391 28.1008 2.90084Z" fill="#E289B0"/>
<path fill-rule="evenodd" clip-rule="evenodd" d="M24.9272 0H27.0908C28.6351 0 29.9036 1.1613 30.0861 2.65886C30.3065 4.46665 30.873 8.30058 31.8566 10.7564C32.6832 12.8203 35.1804 15.3813 38.9017 17.7783C45.6715 22.1388 52 27.7668 52 36C52 48.0083 39.8986 57 26 57C12.1014 57 0 48.0083 0 36C0 27.8816 5.28324 22.3965 12.9972 17.8138C16.5923 15.6781 19.311 12.7325 20.1567 10.7239C21.2118 8.21821 21.7304 4.49159 21.9232 2.7064C22.0863 1.19654 23.3572 0 24.9272 0ZM27.0908 2C27.6063 2 28.0385 2.38912 28.1008 2.90084C28.3194 4.69391 28.9072 8.77153 30 11.5C31.0638 14.156 34 17 37.8187 19.4597C44.5629 23.8037 50 28.9082 50 36C50 46.4934 39.2548 55 26 55C12.7452 55 2 46.4934 2 36C2 28.9612 6.5 24 14.0187 19.5333C17.8207 17.2746 20.928 14.046 22 11.5C23.1806 8.69599 23.7191 4.70378 23.9117 2.92122C23.9678 2.40121 24.4042 2 24.9272 2H27.0908Z" fill="#9D225D"/>
<path d="M19.1779 23.6172C21.4944 25.9867 20.2852 30.9258 16.477 34.649C12.6688 38.3722 7.7037 39.4697 5.38714 37.1003C3.07057 34.7309 4.27979 29.7918 8.088 26.0685C11.8962 22.3453 16.8613 21.2478 19.1779 23.6172Z" fill="#FFA7CF"/>
<path fill-rule="evenodd" clip-rule="evenodd" d="M24.7372 2.01794C24.3018 2.10126 23.9608 2.46565 23.9116 2.92121C23.846 3.5285 23.7402 4.39226 23.5826 5.37811C24.0608 4.15956 24.4511 2.96709 24.7372 2.01794ZM8.3842 48.9042C11.3835 50.7126 14.8937 52.0283 18.7357 52.6547C31.8178 54.7876 43.7918 48.1209 45.4803 37.7642C46.6215 30.7649 42.0766 24.8519 36.1194 19.4793C33.4281 17.0522 31.3306 14.474 30.2764 12.1125C31.518 14.5888 34.292 17.1881 37.8186 19.4597C44.5628 23.8036 49.9999 28.9082 49.9999 36C49.9999 46.4934 39.2547 55 25.9999 55C19.0378 55 12.7681 52.6531 8.3842 48.9042Z" fill="#C7638F"/>
<path d="M28 35C28 44.9411 27.5523 53 27 53C26.4477 53 26 44.9411 26 35C26 25.0589 26.4477 17 27 17C27.5523 17 28 25.0589 28 35Z" fill="#C54C82"/>
<path d="M44 34.5C44 43.0604 35.5793 50 35.0288 50C34.4783 50 42.0064 43.0604 42.0064 34.5C42.0064 25.9396 34.4783 19 35.0288 19C35.5793 19 44 25.9396 44 34.5Z" fill="#C54C82"/>
<path d="M8 34.5C8 43.0604 16.4207 50 16.9712 50C17.5217 50 9.9936 43.0604 9.9936 34.5C9.9936 25.9396 17.5217 19 16.9712 19C16.4207 19 8 25.9396 8 34.5Z" fill="#C54C82"/>
<path d="M36 35.5C36 45.165 31.2574 53 31.0128 53C30.7681 53 33.1139 45.165 33.1139 35.5C33.1139 25.835 30.7681 18 31.0128 18C31.2574 18 36 25.835 36 35.5Z" fill="#C54C82"/>
<path d="M17 35.5C17 45.165 21.7426 53 21.9872 53C22.2319 53 19.8861 45.165 19.8861 35.5C19.8861 25.835 22.2319 18 21.9872 18C21.7426 18 17 25.835 17 35.5Z" fill="#C54C82"/>
<path d="M43.7797 38.0084C43.3822 38.7757 42.438 39.0754 41.6708 38.6779C40.9035 38.2804 40.6038 37.3363 41.0013 36.569C41.3988 35.8018 42.343 35.5021 43.1102 35.8996C43.8774 36.297 44.1772 37.2412 43.7797 38.0084Z" fill="#A3446E"/>
<path d="M47.0388 42.7163C46.6413 43.4835 45.6972 43.7833 44.9299 43.3858C44.1627 42.9883 43.863 42.0441 44.2605 41.2769C44.6579 40.5097 45.6021 40.2099 46.3694 40.6074C47.1366 41.0049 47.4363 41.9491 47.0388 42.7163Z" fill="#A3446E"/>
<path d="M48.0527 37.1975C47.7545 37.7729 47.0464 37.9977 46.471 37.6996C45.8956 37.4015 45.6708 36.6934 45.9689 36.1179C46.267 35.5425 46.9751 35.3177 47.5506 35.6158C48.126 35.914 48.3508 36.6221 48.0527 37.1975Z" fill="#A3446E"/>
<path d="M43.7748 47.3375C43.3773 48.1047 42.4331 48.4045 41.6659 48.007C40.8987 47.6095 40.599 46.6653 40.9964 45.8981C41.3939 45.1308 42.3381 44.8311 43.1053 45.2286C43.8726 45.6261 44.1723 46.5703 43.7748 47.3375Z" fill="#A3446E"/>
<path d="M41.4964 42.552C41.0989 43.3192 40.1547 43.619 39.3875 43.2215C38.6202 42.824 38.3205 41.8798 38.718 41.1126C39.1155 40.3454 40.0597 40.0456 40.8269 40.4431C41.5941 40.8406 41.8939 41.7848 41.4964 42.552Z" fill="#A3446E"/>
<path d="M38.3793 50.5496C37.9818 51.3168 37.0376 51.6166 36.2704 51.2191C35.5032 50.8216 35.2034 49.8774 35.6009 49.1102C35.9984 48.343 36.9426 48.0432 37.7098 48.4407C38.477 48.8382 38.7768 49.7824 38.3793 50.5496Z" fill="#A3446E"/>
<path d="M37.0066 45.778C36.6091 46.5452 35.6649 46.845 34.8977 46.4475C34.1305 46.05 33.8307 45.1058 34.2282 44.3386C34.6257 43.5714 35.5699 43.2716 36.3371 43.6691C37.1044 44.0666 37.4041 45.0108 37.0066 45.778Z" fill="#A3446E"/>
<path d="M32.472 52.3302C32.1739 52.9057 31.4658 53.1305 30.8904 52.8323C30.3149 52.5342 30.0901 51.8261 30.3883 51.2507C30.6864 50.6753 31.3945 50.4505 31.9699 50.7486C32.5453 51.0467 32.7701 51.7548 32.472 52.3302Z" fill="#A3446E"/>
<path fill-rule="evenodd" clip-rule="evenodd" d="M11.6676 28.0765C12.4674 28.8383 12.4983 30.1042 11.7365 30.9041C11.1553 31.5143 10.7546 32.1766 10.508 32.8998C10.1516 33.9452 9.01507 34.5038 7.96961 34.1473C6.92414 33.7908 6.3656 32.6543 6.72207 31.6089C7.16433 30.3118 7.87908 29.1544 8.83999 28.1454C9.60176 27.3456 10.8677 27.3147 11.6676 28.0765Z" fill="white"/>
</svg>
