<svg width="75" height="65" viewBox="0 0 75 65" fill="none" xmlns="http://www.w3.org/2000/svg">
<path d="M67.0418 32.365C67.0418 32.365 62.1451 39.299 57.3765 40.6672C51.6291 42.3162 46.3271 36.7661 46.3271 36.7661C46.3271 36.7661 49.5656 30.8544 55.7281 29.5451C60.4685 28.538 67.0418 32.365 67.0418 32.365Z" fill="#64AC1D"/>
<path fill-rule="evenodd" clip-rule="evenodd" d="M68.6755 33.5186L67.0418 32.3649L68.0481 30.6365C68.5328 30.9187 68.8768 31.3915 68.9961 31.9395C69.1154 32.4875 68.9991 33.0605 68.6755 33.5186ZM65.2374 31.4449C66.3433 31.9582 67.0418 32.3649 67.0418 32.3649C67.0418 32.3649 66.5803 33.0184 65.8027 33.9638C64.0473 36.0978 60.6812 39.7189 57.3765 40.6671C51.6292 42.3161 46.3272 36.766 46.3272 36.766C46.3272 36.766 49.5657 30.8543 55.7281 29.545C58.9232 28.8662 62.951 30.3835 65.2374 31.4449ZM46.3272 36.766C44.5731 35.8051 44.5735 35.8045 44.5738 35.8038L44.5746 35.8024L44.5764 35.7991L44.5809 35.791L44.5936 35.7683C44.6037 35.7504 44.6171 35.7268 44.6337 35.698C44.667 35.6405 44.7134 35.5618 44.7729 35.4647C44.8918 35.2706 45.0636 35.0017 45.2878 34.6795C45.735 34.0369 46.3982 33.1714 47.2757 32.2596C49.0149 30.4526 51.7017 28.3559 55.3125 27.5887C58.2682 26.9607 61.5534 27.8457 63.8593 28.7026C65.0589 29.1483 66.0946 29.6258 66.8307 29.9916C67.2 30.1751 67.4969 30.3321 67.7049 30.445C67.8089 30.5016 67.8909 30.5472 67.9488 30.5798C67.9777 30.5961 68.0006 30.6092 68.0173 30.6187L68.0375 30.6303L68.044 30.6341L68.0481 30.6365C68.0485 30.6367 68.0481 30.6365 67.0418 32.3649C68.6755 33.5186 68.6758 33.5183 68.6755 33.5186L68.673 33.5222L68.6686 33.5284L68.6545 33.5481C68.6428 33.5645 68.6264 33.5874 68.6054 33.6164C68.5634 33.6743 68.5033 33.7566 68.4261 33.8602C68.2718 34.0673 68.0492 34.3602 67.768 34.714C67.2072 35.4198 66.4058 36.3777 65.4432 37.3848C63.5963 39.3172 60.8643 41.7471 57.9281 42.5895C54.2976 43.6312 50.9448 42.3664 48.6958 41.0665C47.5471 40.4025 46.6082 39.6859 45.9566 39.1368C45.6291 38.8608 45.3697 38.6234 45.188 38.4505C45.097 38.364 45.0252 38.2934 44.9737 38.2419C44.948 38.2162 44.9273 38.1951 44.9118 38.1793L44.8924 38.1594L44.8857 38.1524L44.8831 38.1497L44.882 38.1485C44.8815 38.148 44.881 38.1475 46.3272 36.766ZM44.5731 35.8051L46.3272 36.766L44.881 38.1475C44.2789 37.5172 44.1543 36.5696 44.5731 35.8051Z" fill="#156319"/>
<path d="M64.4634 45.8476C64.4634 45.8476 55.3949 49.7768 49.8247 48.2492C43.1111 46.4081 41.2004 37.6783 41.2004 37.6783C41.2004 37.6783 48.0009 33.7614 54.9215 36.1917C60.245 38.0612 64.4634 45.8476 64.4634 45.8476Z" fill="#7CD623"/>
<path fill-rule="evenodd" clip-rule="evenodd" d="M65.2585 47.6828L64.4634 45.8476L66.2219 44.8949C66.4891 45.3881 66.5369 45.9708 66.3537 46.5009C66.1705 47.031 65.7732 47.4598 65.2585 47.6828ZM63.4113 44.1195C64.0848 45.1488 64.4634 45.8476 64.4634 45.8476C64.4634 45.8476 63.7407 46.1607 62.5781 46.5758C59.6222 47.6311 53.8225 49.3456 49.8247 48.2492C43.1111 46.4081 41.2004 37.6783 41.2004 37.6783C41.2004 37.6783 48.0009 33.7614 54.9215 36.1917C58.6502 37.5011 61.8366 41.7132 63.4113 44.1195ZM41.2004 37.6783C40.2022 35.9452 40.2028 35.9449 40.2035 35.9445L40.2049 35.9437L40.2083 35.9417L40.2169 35.9368L40.2416 35.9229C40.2614 35.9118 40.2878 35.8971 40.3207 35.8792C40.3863 35.8434 40.4776 35.7946 40.5931 35.7353C40.8237 35.617 41.1516 35.4564 41.5633 35.2747C42.3846 34.912 43.5518 34.4594 44.9565 34.0896C47.7437 33.3557 51.613 32.9101 55.5842 34.3047C58.8107 35.4378 61.4927 38.243 63.259 40.482C64.173 41.6406 64.907 42.7327 65.4129 43.5351C65.6666 43.9375 65.8648 44.2699 66.0013 44.5051C66.0697 44.6228 66.1227 44.7164 66.1597 44.7824C66.1782 44.8155 66.1927 44.8416 66.2031 44.8605L66.2156 44.8833L66.2195 44.8906L66.2219 44.8949C66.2222 44.8954 66.2219 44.8949 64.4634 45.8476C65.2585 47.6828 65.2589 47.6826 65.2585 47.6828L65.2542 47.6846L65.2466 47.6879L65.2216 47.6986C65.2006 47.7076 65.171 47.7201 65.1332 47.736C65.0577 47.7676 64.9494 47.8124 64.8113 47.8682C64.5353 47.9795 64.1397 48.1347 63.6494 48.3149C62.6711 48.6745 61.3038 49.1383 59.7489 49.5536C56.7481 50.3549 52.6346 51.0937 49.2957 50.178C45.1796 49.0492 42.6698 45.8521 41.2395 43.2316C40.5109 41.8968 40.0185 40.6343 39.7076 39.7068C39.5514 39.241 39.4392 38.8542 39.3647 38.5779C39.3274 38.4396 39.2994 38.3285 39.28 38.2487C39.2703 38.2087 39.2627 38.1765 39.2572 38.1526L39.2505 38.1229L39.2482 38.1128L39.2473 38.109L39.247 38.1073C39.2468 38.1066 39.2467 38.1059 41.2004 37.6783ZM40.2022 35.9452L41.2004 37.6783L39.2467 38.1059C39.0603 37.2544 39.4469 36.3803 40.2022 35.9452Z" fill="#156319"/>
<path d="M49.521 46.6994C53.7858 48.1971 61.478 45.5548 61.478 45.5548C53.6662 40.2631 45.9431 39.9248 43.1919 40.0204C43.1919 40.0204 45.2561 45.2017 49.521 46.6994Z" fill="#6FC21C"/>
<path d="M42.7754 45.71C57.5 37 55.2 21.4135 48.5793 9.93058L6.99597 33.9061C13.6166 45.389 27.0704 55 42.7754 45.71Z" fill="#A6682F"/>
<path fill-rule="evenodd" clip-rule="evenodd" d="M47.5804 8.19796C48.5373 7.64624 49.7603 7.97471 50.312 8.93162C53.7445 14.8849 56.151 22.0507 55.6773 28.9963C55.1952 36.0629 51.7325 42.7354 43.7937 47.4314C35.3921 52.4012 27.4272 52.3661 20.6814 49.4319C14.032 46.5397 8.72451 40.9081 5.26339 34.9051C4.71166 33.9482 5.04013 32.7252 5.99704 32.1735L47.5804 8.19796ZM8.04006 35.6128C14.968 46.3031 27.8559 54.5354 42.7755 45.71C56.7626 37.4362 55.3877 22.9575 49.54 11.6854C49.2317 11.0911 48.9109 10.5057 48.5794 9.9306L6.99602 33.9061C7.32713 34.4804 7.67534 35.05 8.04006 35.6128Z" fill="#6C3211"/>
<path fill-rule="evenodd" clip-rule="evenodd" d="M48.5793 9.93066C55.2 21.4136 57.5 37.0001 42.7754 45.7101C35.39 50.0788 28.5024 50.2677 22.5891 48.0476C26.6085 48.6132 31.0314 47.8312 35.6893 45.0759C48.0953 37.7375 46.1574 24.6054 40.5793 14.9307L7.16491 34.1963C7.10811 34.0997 7.0518 34.003 6.99597 33.9062L48.5793 9.93066Z" fill="#925824"/>
<path d="M49.6016 32.0033C49.1535 33.0129 47.9717 33.468 46.9622 33.0198C45.9526 32.5716 45.4975 31.3899 45.9457 30.3803C46.3939 29.3708 47.5756 28.9157 48.5852 29.3639C49.5947 29.812 50.0498 30.9938 49.6016 32.0033Z" fill="#77461A"/>
<path d="M48.325 25.6566C47.9889 26.4138 47.1026 26.7551 46.3454 26.4189C45.5882 26.0828 45.2469 25.1965 45.583 24.4393C45.9192 23.6822 46.8055 23.3408 47.5626 23.677C48.3198 24.0131 48.6611 24.8994 48.325 25.6566Z" fill="#77461A"/>
<path d="M46.7614 38.4012C46.3133 39.4107 45.1315 39.8658 44.122 39.4176C43.1124 38.9695 42.6573 37.7877 43.1055 36.7782C43.5537 35.7686 44.7354 35.3135 45.745 35.7617C46.7545 36.2099 47.2096 37.3916 46.7614 38.4012Z" fill="#77461A"/>
<path d="M42.9005 32.3107C42.4523 33.3203 41.2706 33.7754 40.261 33.3272C39.2514 32.879 38.7964 31.6973 39.2445 30.6877C39.6927 29.6782 40.8744 29.2231 41.884 29.6712C42.8936 30.1194 43.3487 31.3011 42.9005 32.3107Z" fill="#77461A"/>
<path d="M40.3506 42.5883C40.0145 43.3455 39.1282 43.6868 38.371 43.3507C37.6138 43.0146 37.2725 42.1283 37.6087 41.3711C37.9448 40.6139 38.8311 40.2726 39.5883 40.6087C40.3454 40.9449 40.6868 41.8312 40.3506 42.5883Z" fill="#77461A"/>
<path d="M48.5793 9.9306C50.7861 13.7582 43.2664 22.2283 31.7835 28.8489C20.3006 35.4696 9.20281 37.7338 6.99592 33.9061C4.78904 30.0785 12.3087 21.6085 23.7917 14.9878C35.2746 8.36715 46.3724 6.10296 48.5793 9.9306Z" fill="#FFEED6"/>
<path fill-rule="evenodd" clip-rule="evenodd" d="M46.8107 19.6702C43.5937 23.2939 38.6584 27.1938 32.7825 30.5816C26.9067 33.9694 21.0589 36.2866 16.3111 37.2553C13.9479 37.7374 11.7432 37.9094 9.89744 37.641C8.08005 37.3766 6.25235 36.6205 5.26334 34.9051C4.27433 33.1898 4.53563 31.2292 5.21743 29.5239C5.90988 27.792 7.16332 25.9701 8.76454 24.1666C11.9816 20.5429 16.9169 16.643 22.7927 13.2552C28.6686 9.86736 34.5164 7.55014 39.2642 6.58147C41.6273 6.09934 43.8321 5.92736 45.6778 6.19581C47.4952 6.46012 49.3229 7.21629 50.3119 8.93163C51.301 10.647 51.0397 12.6076 50.3579 14.3128C49.6654 16.0448 48.412 17.8666 46.8107 19.6702ZM31.7836 28.8489C43.2665 22.2283 50.7862 13.7583 48.5793 9.93061C46.3724 6.10297 35.2746 8.36716 23.7917 14.9878C12.3088 21.6085 4.78909 30.0785 6.99598 33.9062C9.20286 37.7338 20.3006 35.4696 31.7836 28.8489Z" fill="#8C4922"/>
<path fill-rule="evenodd" clip-rule="evenodd" d="M43 10.5001C43 11.6046 42.1046 12.5001 41 12.5001C40.7055 12.5001 40.5528 12.5317 40.3479 12.5781C40.3276 12.5827 40.3059 12.5877 40.283 12.5929C40.017 12.6543 39.5812 12.7548 39 12.7548C37.8955 12.7548 37 11.8594 37 10.7548C37 9.65021 37.8955 8.75478 39 8.75478C39.1188 8.75478 39.1591 8.74598 39.4647 8.6768C39.8223 8.59583 40.2946 8.50007 41 8.50007C42.1046 8.50007 43 9.3955 43 10.5001Z" fill="white"/>
<path d="M45.2239 13.5181C46.7108 16.0968 40.3612 22.5431 31.0419 27.9163C21.7226 33.2895 12.9625 35.5549 11.4757 32.9762C9.98886 30.3975 16.3384 23.9512 25.6577 18.5779C34.977 13.2047 43.7371 10.9393 45.2239 13.5181Z" fill="#E7D2B4"/>
<path fill-rule="evenodd" clip-rule="evenodd" d="M22.6054 32.0171C18.6134 31.8636 15.3575 30.3981 13.743 27.6428C11.7118 29.8991 10.8112 31.8239 11.4757 32.9763C12.4938 34.7421 16.9223 34.2365 22.6054 32.0171Z" fill="#DDC5A2"/>
<path fill-rule="evenodd" clip-rule="evenodd" d="M16.0619 39.334C16.9351 38.6575 18.1913 38.8168 18.8679 39.6899C19.0483 39.9228 19.1668 40.0241 19.3289 40.1577C19.3451 40.1709 19.3623 40.185 19.3805 40.1998C19.5919 40.3725 19.9383 40.6555 20.2942 41.1149C20.9708 41.988 20.8114 43.2443 19.9383 43.9208C19.0651 44.5974 17.8089 44.438 17.1323 43.5649C17.0596 43.471 17.028 43.4446 16.7861 43.2454C16.5031 43.0123 16.1381 42.6976 15.706 42.1399C15.0294 41.2668 15.1888 40.0105 16.0619 39.334Z" fill="#CF843E"/>
</svg>
