<svg width="53" height="69" viewBox="0 0 53 69" fill="none" xmlns="http://www.w3.org/2000/svg">
<path d="M44.4543 8.9681C44.4543 8.9681 42.4824 17.4192 38.4917 20.5489C33.6817 24.3211 26.5252 21.1027 26.5252 21.1027C26.5252 21.1027 27.3195 14.2577 32.6533 10.6477C36.7562 7.8708 44.4543 8.9681 44.4543 8.9681Z" fill="#10BC17"/>
<path fill-rule="evenodd" clip-rule="evenodd" d="M46.4019 9.42255L44.4543 8.96811L44.7365 6.98812C45.2917 7.06727 45.7883 7.37593 46.1049 7.83883C46.4216 8.30174 46.5294 8.87635 46.4019 9.42255ZM42.4368 8.79277C43.6561 8.85433 44.4543 8.96811 44.4543 8.96811C44.4543 8.96811 44.2729 9.74537 43.9089 10.9158C43.0726 13.6046 41.2721 18.3684 38.4916 20.5489C33.6817 24.3211 26.5252 21.1027 26.5252 21.1027C26.5252 21.1027 27.3195 14.2577 32.6532 10.6477C35.435 8.76497 39.8695 8.66314 42.4368 8.79277ZM26.5252 21.1027C24.5385 20.8722 24.5386 20.8715 24.5387 20.8708L24.5389 20.8692L24.5393 20.8655L24.5405 20.8561L24.5437 20.83C24.5464 20.8093 24.55 20.7821 24.5546 20.7486C24.564 20.6816 24.5776 20.5896 24.5966 20.4751C24.6345 20.2463 24.6936 19.9264 24.7819 19.5359C24.9579 18.7571 25.2526 17.6845 25.7322 16.486C26.6828 14.1103 28.417 11.0999 31.5322 8.99142C34.0794 7.26747 37.5206 6.84248 40.0326 6.76746C41.3384 6.72847 42.5015 6.7824 43.3383 6.84575C43.758 6.87752 44.0991 6.91192 44.339 6.93892C44.4591 6.95242 44.5541 6.9641 44.6212 6.97271C44.6548 6.97701 44.6814 6.98055 44.7007 6.98317L44.7242 6.98639L44.7345 6.98783L44.7365 6.98812C44.737 6.98819 44.7365 6.98812 44.4543 8.96811C46.4019 9.42255 46.402 9.42213 46.4019 9.42255L46.4009 9.42689L46.3992 9.43432L46.3935 9.45829C46.3887 9.47826 46.3819 9.50617 46.3732 9.54158C46.3558 9.6124 46.3305 9.71332 46.2973 9.84093C46.2309 10.096 46.1328 10.4586 46.0027 10.9014C45.7431 11.7847 45.3528 12.9989 44.8289 14.3214C43.8229 16.8613 42.1731 20.2035 39.7259 22.1227C36.7013 24.4947 33.0537 24.587 30.4287 24.2213C29.0886 24.0345 27.9263 23.7175 27.0997 23.4485C26.6843 23.3133 26.3482 23.1885 26.1103 23.095C25.9912 23.0482 25.8964 23.009 25.8281 22.9802C25.794 22.9657 25.7665 22.9539 25.7458 22.9449L25.7201 22.9336L25.7112 22.9296L25.7063 22.9274C25.7056 22.9271 25.7049 22.9268 26.5252 21.1027ZM24.5385 20.8722L26.5252 21.1027L25.7049 22.9268C24.91 22.5693 24.4381 21.7381 24.5385 20.8722Z" fill="#156319"/>
<path d="M37.2396 19.9525C40.5265 17.7278 42.6861 10.9205 42.6861 10.9205C34.8681 13.6625 30.5901 18.9326 29.2186 20.9231C29.2186 20.9231 33.9526 22.1772 37.2396 19.9525Z" fill="#07A00E"/>
<path d="M12.7292 13.2238C12.7292 13.2238 19.1831 11.5421 22.7395 13.1373C27.0259 15.0598 27.3966 21.079 27.3966 21.079C27.3966 21.079 22.4564 22.9872 18.0929 20.6503C14.7364 18.8527 12.7292 13.2238 12.7292 13.2238Z" fill="#13CA1B"/>
<path fill-rule="evenodd" clip-rule="evenodd" d="M12.225 11.2884L12.7293 13.2238L10.8455 13.8955C10.6571 13.3672 10.6992 12.7841 10.9615 12.2884C11.2238 11.7926 11.6823 11.4298 12.225 11.2884ZM13.5351 15.0867C13.0093 14.0091 12.7293 13.2238 12.7293 13.2238C12.7293 13.2238 13.5262 13.0161 14.7143 12.816C16.9073 12.4465 20.433 12.1026 22.7396 13.1372C27.026 15.0598 27.3967 21.079 27.3967 21.079C27.3967 21.079 22.4565 22.9871 18.093 20.6503C15.9902 19.5241 14.417 16.8942 13.5351 15.0867ZM27.3967 21.079C28.1173 22.9446 28.1167 22.9449 28.116 22.9451L28.1145 22.9457L28.1113 22.947L28.1033 22.95L28.0819 22.9581C28.0652 22.9643 28.0436 22.9722 28.0174 22.9817C27.965 23.0005 27.8939 23.0254 27.8053 23.0548C27.6284 23.1134 27.381 23.1902 27.0743 23.2724C26.4631 23.4362 25.6037 23.6247 24.5878 23.7302C22.5789 23.9389 19.8078 23.8374 17.1488 22.4134C14.9429 21.232 13.369 18.9432 12.4109 17.2462C11.9073 16.3544 11.5209 15.5287 11.26 14.926C11.129 14.6234 11.0282 14.3738 10.959 14.1963C10.9243 14.1074 10.8974 14.0364 10.8785 13.9856L10.856 13.9246L10.8492 13.906L10.847 13.8997L10.8455 13.8955C10.8453 13.8951 10.8455 13.8955 12.7293 13.2238C12.225 11.2884 12.2246 11.2885 12.225 11.2884L12.229 11.2874L12.2353 11.2857L12.255 11.2807L12.3216 11.264C12.3779 11.25 12.4576 11.2307 12.5584 11.2071C12.7598 11.16 13.0463 11.096 13.3993 11.0251C14.1029 10.8838 15.0828 10.7124 16.1873 10.5938C18.2837 10.3686 21.256 10.2798 23.5581 11.3124C26.4197 12.5959 27.8485 15.1834 28.5573 17.1514C28.9211 18.1616 29.1272 19.0932 29.2432 19.771C29.3015 20.1121 29.3381 20.3946 29.3605 20.598C29.3716 20.6998 29.3793 20.7822 29.3844 20.8426C29.387 20.8729 29.3889 20.8976 29.3903 20.9166L29.392 20.9407L29.3925 20.9495L29.3929 20.9546C29.3929 20.9553 29.3929 20.956 27.3967 21.079ZM28.1173 22.9446L27.3967 21.079L29.3929 20.956C29.4465 21.826 28.9305 22.6306 28.1173 22.9446Z" fill="#156319"/>
<path fill-rule="evenodd" clip-rule="evenodd" d="M13.7081 13.0031C13.0981 13.1276 12.7292 13.2237 12.7292 13.2237C12.7292 13.2237 14.7364 18.8526 18.0929 20.6502C22.4564 22.9871 27.3966 21.0789 27.3966 21.0789C27.3966 21.0789 27.3082 19.6435 26.7186 17.9508C25.0974 18.4854 21.6491 19.2751 18.3559 17.7862C16.3681 16.8874 14.7379 14.704 13.7081 13.0031Z" fill="#33ED3B"/>
<path d="M48.5596 41.7426C48.5596 53.9443 38.6681 63.8358 26.4663 63.8358C14.2645 63.8358 4.37305 53.9443 4.37305 41.7426C4.37305 29.5408 14.2645 19.6493 26.4663 19.6493C38.6681 19.6493 48.5596 29.5408 48.5596 41.7426Z" fill="#FE9F81"/>
<path fill-rule="evenodd" clip-rule="evenodd" d="M50.5596 41.7426C50.5596 55.0489 39.7726 65.8358 26.4663 65.8358C13.16 65.8358 2.37305 55.0489 2.37305 41.7426C2.37305 28.4362 13.16 17.6493 26.4663 17.6493C39.7726 17.6493 50.5596 28.4362 50.5596 41.7426ZM26.4663 63.8358C38.6681 63.8358 48.5596 53.9443 48.5596 41.7426C48.5596 29.5408 38.6681 19.6493 26.4663 19.6493C14.2645 19.6493 4.37305 29.5408 4.37305 41.7426C4.37305 53.9443 14.2645 63.8358 26.4663 63.8358Z" fill="#AB442D"/>
<path fill-rule="evenodd" clip-rule="evenodd" d="M35.9212 61.7162C29.339 60.7081 22.7557 54.2324 19.7977 45.0682C16.1518 33.7729 19.362 22.5714 26.9615 19.6548C26.7969 19.6511 26.6318 19.6493 26.4663 19.6493C14.2645 19.6493 4.37305 29.5408 4.37305 41.7426C4.37305 53.9444 14.2645 63.8358 26.4663 63.8358C29.8494 63.8358 33.0549 63.0754 35.9212 61.7162Z" fill="#FF7E6C"/>
<path d="M31.7567 22.9637C34.4448 24.4058 34.8704 28.8434 32.7073 32.8755C30.5443 36.9076 26.6116 39.0073 23.9236 37.5653C21.2355 36.1232 20.8099 31.6856 22.973 27.6535C25.136 23.6213 29.0686 21.5217 31.7567 22.9637Z" fill="#FEC0AC"/>
<path fill-rule="evenodd" clip-rule="evenodd" d="M26.4606 28.8089C27.452 29.2961 27.8607 30.4946 27.3736 31.486C27.0411 32.1626 26.8779 32.8323 26.8614 33.5113C26.8345 34.6156 25.9176 35.4889 24.8133 35.4621C23.7091 35.4352 22.8357 34.5183 22.8625 33.4141C22.8938 32.1288 23.2083 30.8927 23.7836 29.7219C24.2707 28.7306 25.4693 28.3218 26.4606 28.8089Z" fill="white"/>
<path fill-rule="evenodd" clip-rule="evenodd" d="M26.3241 19.0924C29.1776 18.0335 32.1645 18.3239 34.6151 19.1635C35.1376 19.3425 35.416 19.9111 35.237 20.4336C35.058 20.9561 34.4894 21.2345 33.9669 21.0555C31.8261 20.3221 29.33 20.1102 27.0199 20.9675C24.7407 21.8133 22.5052 23.7502 20.9367 27.5844C17.7514 35.3707 19.6287 42.6159 20.9056 45.1696C21.1526 45.6636 20.9523 46.2642 20.4584 46.5112C19.9644 46.7582 19.3637 46.558 19.1167 46.064C17.6319 43.0944 15.6429 35.2425 19.0856 26.8271C20.831 22.5605 23.4398 20.1628 26.3241 19.0924Z" fill="#AB442D"/>
<path d="M25.2201 58.9158C25.8224 59.8906 25.5204 61.1691 24.5456 61.7713C23.5708 62.3736 22.2924 62.0716 21.6901 61.0968C21.0878 60.122 21.3898 58.8436 22.3646 58.2413C23.3394 57.639 24.6179 57.941 25.2201 58.9158Z" fill="#EC6B59"/>
<path d="M31.7355 58.2166C32.3378 59.1914 32.0358 60.4698 31.061 61.0721C30.0862 61.6744 28.8077 61.3724 28.2055 60.3976C27.6032 59.4228 27.9052 58.1443 28.88 57.5421C29.8548 56.9398 31.1333 57.2418 31.7355 58.2166Z" fill="#EC6B59"/>
<path d="M28.7574 52.7224C29.2248 53.4788 28.9904 54.471 28.2339 54.9384C27.4774 55.4058 26.4853 55.1714 26.0179 54.4149C25.5505 53.6584 25.7849 52.6663 26.5414 52.1989C27.2979 51.7315 28.29 51.9659 28.7574 52.7224Z" fill="#EC6B59"/>
<path d="M36.0169 57.2344C36.4843 57.9909 36.2499 58.9831 35.4934 59.4505C34.737 59.9178 33.7448 59.6835 33.2774 58.927C32.81 58.1705 33.0444 57.1784 33.8009 56.711C34.5574 56.2436 35.5495 56.478 36.0169 57.2344Z" fill="#EC6B59"/>
<path d="M22.4947 52.9825C22.9621 53.739 22.7277 54.7311 21.9712 55.1985C21.2147 55.6659 20.2226 55.4315 19.7552 54.675C19.2878 53.9186 19.5222 52.9264 20.2787 52.459C21.0352 51.9916 22.0273 52.226 22.4947 52.9825Z" fill="#EC6B59"/>
<path d="M14.5858 49.3696C15.0531 50.1261 14.8188 51.1182 14.0623 51.5856C13.3058 52.053 12.3137 51.8186 11.8463 51.0621C11.3789 50.3056 11.6133 49.3135 12.3697 48.8461C13.1262 48.3787 14.1184 48.6131 14.5858 49.3696Z" fill="#EC6B59"/>
<path d="M38.5858 52.3697C39.0531 53.1262 38.8188 54.1183 38.0623 54.5857C37.3058 55.0531 36.3137 54.8187 35.8463 54.0622C35.3789 53.3058 35.6133 52.3136 36.3697 51.8462C37.1262 51.3788 38.1184 51.6132 38.5858 52.3697Z" fill="#EC6B59"/>
<path d="M19.0071 57.6608C19.4745 58.4173 19.2402 59.4095 18.4837 59.8768C17.7272 60.3442 16.735 60.1099 16.2677 59.3534C15.8003 58.5969 16.0346 57.6048 16.7911 57.1374C17.5476 56.67 18.5398 56.9043 19.0071 57.6608Z" fill="#EC6B59"/>
<path d="M17.7869 52.8572C18.0231 53.2396 17.9047 53.741 17.5223 53.9772C17.14 54.2135 16.6385 54.095 16.4023 53.7127C16.1661 53.3303 16.2846 52.8289 16.6669 52.5927C17.0492 52.3564 17.5507 52.4749 17.7869 52.8572Z" fill="#EC6B59"/>
<path d="M9.81228 48.6922C10.0485 49.0745 9.93006 49.576 9.54772 49.8122C9.16538 50.0484 8.66394 49.93 8.42772 49.5476C8.1915 49.1653 8.30995 48.6639 8.69228 48.4276C9.07462 48.1914 9.57606 48.3099 9.81228 48.6922Z" fill="#EC6B59"/>
<path d="M40.8123 55.6922C41.0485 56.0745 40.9301 56.576 40.5477 56.8122C40.1654 57.0484 39.6639 56.93 39.4277 56.5476C39.1915 56.1653 39.3099 55.6639 39.6923 55.4276C40.0746 55.1914 40.5761 55.3099 40.8123 55.6922Z" fill="#EC6B59"/>
<path d="M33.8123 52.6922C34.0485 53.0745 33.9301 53.576 33.5477 53.8122C33.1654 54.0484 32.6639 53.93 32.4277 53.5476C32.1915 53.1653 32.3099 52.6639 32.6923 52.4276C33.0746 52.1914 33.5761 52.3099 33.8123 52.6922Z" fill="#EC6B59"/>
<path d="M42.8123 51.6922C43.0485 52.0745 42.9301 52.576 42.5477 52.8122C42.1654 53.0484 41.6639 52.93 41.4277 52.5476C41.1915 52.1653 41.3099 51.6639 41.6923 51.4276C42.0746 51.1914 42.5761 51.3099 42.8123 51.6922Z" fill="#EC6B59"/>
<path d="M14.5356 53.8668C14.9257 54.4982 14.7301 55.3263 14.0987 55.7164C13.4673 56.1065 12.6392 55.9109 12.2491 55.2795C11.859 54.6481 12.0546 53.82 12.686 53.4299C13.3174 53.0398 14.1455 53.2354 14.5356 53.8668Z" fill="#EC6B59"/>
</svg>
