<svg width="63" height="70" viewBox="0 0 63 70" fill="none" xmlns="http://www.w3.org/2000/svg">
<path d="M32.3048 18.276C31.0775 9.23782 23.807 10.6919 19.4447 5.84486C20.6732 8.83883 28.2178 17.0749 32.3048 18.276Z" fill="#73B40D"/>
<path fill-rule="evenodd" clip-rule="evenodd" d="M33.6084 19.7927C34.1226 19.3508 34.3778 18.6786 34.2866 18.0068C33.9417 15.467 33.1492 13.5219 31.9818 11.99C30.8234 10.4698 29.396 9.48979 28.0078 8.73282C27.3196 8.35753 26.6157 8.0241 25.9576 7.71489C25.9073 7.69126 25.8573 7.66779 25.8075 7.64443C25.1904 7.35471 24.6137 7.08393 24.0479 6.78835C22.8394 6.15709 21.7986 5.47055 20.9313 4.50693C20.2806 3.78392 19.2041 3.6339 18.3805 4.15148C17.557 4.66906 17.2252 5.70412 17.5944 6.60403C18.0108 7.61879 18.8566 8.87374 19.8197 10.1103C20.8165 11.3902 22.0551 12.7964 23.3796 14.1379C24.7021 15.4774 26.1384 16.781 27.5347 17.8409C28.8912 18.8707 30.3633 19.7899 31.7409 20.1948C32.3913 20.3859 33.0943 20.2346 33.6084 19.7927ZM31.765 15.8648C31.9993 16.5749 32.1822 17.3731 32.3048 18.2759C31.6359 18.0794 30.8745 17.6944 30.0632 17.1748C27.7482 15.6921 25.028 13.1132 22.898 10.6887C21.2136 8.77138 19.8984 6.9506 19.4447 5.84485C20.8148 7.36724 22.4719 8.26802 24.1384 9.06753C24.4094 9.1975 24.6805 9.32479 24.9507 9.45164C27.7821 10.7807 30.5103 12.0614 31.765 15.8648Z" fill="#436C02"/>
<path d="M33.0188 21.1842C34.2461 12.146 41.7409 7.7837 46.5879 8.75315C39.3174 9.72249 41.2562 18.9318 33.0188 21.1842Z" fill="#73B40D"/>
<path fill-rule="evenodd" clip-rule="evenodd" d="M31.7009 22.6885C31.196 22.2462 30.9466 21.5801 31.037 20.915C32.3906 10.9467 40.8015 5.55618 46.9801 6.79197C47.9389 6.98375 48.6185 7.84068 48.5868 8.81798C48.5551 9.79527 47.8214 10.6064 46.8522 10.7356C44.3496 11.0692 43.4398 12.6206 41.9276 15.4343L41.9094 15.4682C40.4563 18.172 38.5337 21.7496 33.5463 23.1133C32.8988 23.2904 32.2057 23.1308 31.7009 22.6885ZM33.4779 18.9231C33.281 19.6408 33.126 20.3946 33.0188 21.1841C33.839 20.9599 34.5583 20.6666 35.1959 20.3194C37.7921 18.9055 39.0327 16.5966 40.2098 14.4058C40.7987 13.3098 41.3717 12.2434 42.0906 11.3334C43.1259 10.0227 44.4639 9.0363 46.5879 8.75313C44.8755 8.41063 42.8327 8.7336 40.8525 9.69311C37.7172 11.2123 34.7389 14.3272 33.4779 18.9231Z" fill="#436C02"/>
<path fill-rule="evenodd" clip-rule="evenodd" d="M33.0163 4.81427C34.1209 4.81427 35.0163 5.7097 35.0163 6.81427V21.3553C35.0163 22.4598 34.1209 23.3553 33.0163 23.3553C31.9117 23.3553 31.0163 22.4598 31.0163 21.3553V6.81427C31.0163 5.7097 31.9117 4.81427 33.0163 4.81427Z" fill="#457003"/>
<path d="M24.2917 19.9014C13.0765 18.945 2.24026 28.0569 2.96486 39.2894C4.12822 59.8407 21.3834 67.1224 31.5622 67.1224C41.2561 67.1224 58.2208 60.2285 60.1595 39.2894C60.8842 28.0569 50.0478 18.945 38.8327 19.9014C35.8749 20.1536 32.5964 21.9357 31.5622 22.1198C30.528 21.9357 27.2495 20.1536 24.2917 19.9014Z" fill="#FF3A1A"/>
<path fill-rule="evenodd" clip-rule="evenodd" d="M62.1535 39.4461L62.151 39.4738C60.0892 61.7421 41.9568 69.1225 31.5622 69.1225C26.0632 69.1225 18.7704 67.1749 12.6667 62.5006C6.49896 57.7772 1.58676 50.2943 0.968508 39.4102C0.157877 26.7614 12.2382 16.8663 24.4616 17.9087C26.2302 18.0595 28.0045 18.6531 29.3575 19.1661C29.8176 19.3406 30.2701 19.5223 30.6558 19.6772C30.8332 19.7485 30.9965 19.814 31.1399 19.8706C31.3026 19.9348 31.4422 19.9886 31.5622 20.0327C31.6821 19.9886 31.8218 19.9348 31.9845 19.8706C32.1279 19.814 32.2912 19.7485 32.4686 19.6772C32.8543 19.5223 33.3068 19.3406 33.7669 19.1661C35.1199 18.6531 36.8941 18.0595 38.6628 17.9087C50.8887 16.8661 62.9717 26.7656 62.1553 39.4182L62.1535 39.4461ZM31.5622 22.1198C31.2187 22.0587 30.6278 21.8213 29.8833 21.5223C28.3859 20.9209 26.2672 20.0699 24.2917 19.9014C13.0766 18.9451 2.24027 28.057 2.96487 39.2894C4.12823 59.8407 21.3834 67.1225 31.5622 67.1225C41.2561 67.1225 58.2208 60.2285 60.1595 39.2894C60.8842 28.057 50.0478 18.9451 38.8327 19.9014C36.8571 20.0699 34.7385 20.9209 33.2411 21.5223C32.4966 21.8213 31.9056 22.0587 31.5622 22.1198Z" fill="#A20505"/>
<path fill-rule="evenodd" clip-rule="evenodd" d="M7.5556 26.6059C11.6313 22.0817 17.9 19.3564 24.2917 19.9015C26.2673 20.0699 28.3859 20.9209 29.8833 21.5223C30.6278 21.8214 31.2188 22.0587 31.5622 22.1198C31.9057 22.0587 32.4966 21.8214 33.2411 21.5223C34.7385 20.9209 36.8572 20.0699 38.8327 19.9015C45.5968 19.3247 52.2231 22.4102 56.2584 27.4145C50.9976 24.7198 44.6689 23.2813 38.8328 23.779C36.8572 23.9475 34.7386 24.7984 33.2412 25.3999C32.4966 25.6989 31.9057 25.9363 31.5623 25.9974C31.2188 25.9363 30.6279 25.6989 29.8834 25.3999C28.386 24.7984 26.2673 23.9475 24.2918 23.779C18.2585 23.2645 12.4089 24.3843 7.5556 26.6059Z" fill="#E83214"/>
<path fill-rule="evenodd" clip-rule="evenodd" d="M12.2466 59.5599C17.4569 62.8285 23.2441 64.2143 27.6845 64.2143C37.3784 64.2143 54.3431 57.3203 56.2818 36.3812C56.6273 31.0258 54.3448 26.1524 50.6461 22.6224C56.5242 26.0391 60.6137 32.2475 60.1594 39.2894C58.2207 60.2285 41.256 67.1225 31.5621 67.1225C25.9782 67.1225 18.2648 64.9311 12.2466 59.5599Z" fill="#E83214"/>
<path d="M33.0162 17.7146C39.802 11.6613 41.7408 18.4472 48.0419 19.4165C44.8584 19.9983 36.2331 20.5071 33.0162 17.7146Z" fill="#8ED918"/>
<path fill-rule="evenodd" clip-rule="evenodd" d="M31.0162 17.7281C31.0123 17.1534 31.2559 16.6047 31.6848 16.2221C33.536 14.5708 35.2691 13.5999 37.0209 13.3162C38.8188 13.025 40.3325 13.5064 41.6057 14.1434C42.2281 14.4548 42.8239 14.8193 43.3694 15.1609C43.486 15.2339 43.6 15.3057 43.7124 15.3765C44.147 15.6501 44.5563 15.9078 44.9903 16.1584C46.0555 16.7736 47.1133 17.2501 48.346 17.4398C49.3111 17.5882 50.028 18.412 50.0417 19.3884C50.0554 20.3648 49.362 21.2084 48.4014 21.3839C46.6591 21.7023 43.5525 21.9853 40.4408 21.8283C38.8796 21.7496 37.2585 21.5574 35.7769 21.1778C34.3212 20.8047 32.8412 20.2111 31.7051 19.225C31.2711 18.8482 31.0201 18.3029 31.0162 17.7281ZM34.6418 16.4414C34.131 16.7812 33.591 17.2018 33.0162 17.7146C33.5111 18.1442 34.1339 18.4956 34.8453 18.7807C37.2051 19.7264 40.5387 19.9417 43.4041 19.8556C45.2898 19.799 46.9727 19.6119 48.0419 19.4165C46.4245 19.1677 45.0945 18.5356 43.8962 17.8359C43.4598 17.581 43.0408 17.3171 42.6317 17.0595C40.1592 15.5024 38.0499 14.1741 34.6418 16.4414Z" fill="#436C02"/>
<path d="M31.5619 18.4471C27.6845 13.6 23.3221 16.5082 15.0822 16.9929C18.475 18.9317 27.7852 20.4176 31.5619 18.4471Z" fill="#8ED918"/>
<path fill-rule="evenodd" clip-rule="evenodd" d="M33.519 18.8594C33.6422 18.2743 33.4972 17.6647 33.1237 17.1978C31.968 15.7531 30.6843 14.7799 29.205 14.2316C27.7524 13.6932 26.2695 13.6243 24.8188 13.7255C23.5977 13.8107 22.2712 14.0297 20.926 14.2517C20.7066 14.2879 20.4867 14.3242 20.2667 14.3601C18.6556 14.6223 16.9195 14.8814 14.9647 14.9964C14.0812 15.0484 13.3369 15.6749 13.1349 16.5366C12.933 17.3983 13.3214 18.2903 14.0899 18.7294C16.1295 19.8949 19.617 20.793 22.9515 21.1731C24.6546 21.3673 26.4073 21.4373 28.0179 21.3184C29.5953 21.202 31.1957 20.894 32.487 20.2203C33.0172 19.9437 33.3957 19.4445 33.519 18.8594ZM30.0176 16.9275C30.5455 17.3179 31.0578 17.817 31.5619 18.4471C30.9865 18.7474 30.2825 18.9674 29.4907 19.1177C26.6486 19.6574 22.6737 19.3004 19.4383 18.5378C17.6586 18.1183 16.1027 17.5761 15.0821 16.993C16.7066 16.8974 18.1803 16.7077 19.5294 16.5017C20.1321 16.4097 20.7098 16.3145 21.265 16.223C24.9515 15.6153 27.6429 15.1717 30.0176 16.9275Z" fill="#436C02"/>
<path d="M24.733 25.8529C26.7254 28.8175 24.7355 33.6434 20.2887 36.6319C15.8418 39.6203 10.6218 39.6397 8.62949 36.6751C6.63718 33.7105 8.627 28.8846 13.0739 25.8962C17.5208 22.9077 22.7407 22.8883 24.733 25.8529Z" fill="#FE7B7B"/>
<path fill-rule="evenodd" clip-rule="evenodd" d="M16.4756 28.2072C17.124 29.1014 16.9247 30.3519 16.0305 31.0003C15.3759 31.475 14.8835 32.0293 14.5259 32.6672C13.9857 33.6307 12.7667 33.9738 11.8032 33.4336C10.8398 32.8934 10.4967 31.6744 11.0369 30.711C11.6911 29.5441 12.5821 28.5599 13.6824 27.7621C14.5766 27.1136 15.8272 27.3129 16.4756 28.2072Z" fill="white"/>
<path d="M49.123 47.2944C48.4829 48.1631 47.2598 48.3485 46.3911 47.7085C45.5223 47.0684 45.3369 45.8453 45.977 44.9766C46.617 44.1078 47.8401 43.9224 48.7089 44.5625C49.5776 45.2025 49.763 46.4256 49.123 47.2944Z" fill="#BD1106"/>
<path d="M52.2241 53.7375C51.584 54.6062 50.3609 54.7916 49.4921 54.1516C48.6234 53.5115 48.438 52.2884 49.078 51.4197C49.7181 50.5509 50.9412 50.3655 51.81 51.0056C52.6787 51.6456 52.8641 52.8687 52.2241 53.7375Z" fill="#BD1106"/>
<path d="M54.5519 47.1282C54.0719 47.7798 53.1546 47.9189 52.503 47.4388C51.8514 46.9588 51.7124 46.0414 52.1924 45.3899C52.6725 44.7383 53.5898 44.5993 54.2414 45.0793C54.8929 45.5593 55.032 46.4767 54.5519 47.1282Z" fill="#BD1106"/>
<path d="M47.2961 58.8004C46.6561 59.6692 45.433 59.8546 44.5642 59.2145C43.6955 58.5745 43.5101 57.3514 44.1501 56.4826C44.7901 55.6139 46.0133 55.4285 46.882 56.0685C47.7508 56.7086 47.9362 57.9317 47.2961 58.8004Z" fill="#BD1106"/>
<path d="M45.4198 52.4528C44.7798 53.3216 43.5566 53.507 42.6879 52.8669C41.8191 52.2269 41.6337 51.0038 42.2738 50.135C42.9138 49.2663 44.137 49.0809 45.0057 49.7209C45.8744 50.361 46.0598 51.5841 45.4198 52.4528Z" fill="#BD1106"/>
<path d="M40.0138 61.7092C39.3737 62.578 38.1506 62.7634 37.2819 62.1233C36.4131 61.4833 36.2277 60.2602 36.8678 59.3914C37.5078 58.5227 38.7309 58.3373 39.5997 58.9773C40.4684 59.6174 40.6538 60.8405 40.0138 61.7092Z" fill="#BD1106"/>
<path d="M39.2522 55.5556C38.6121 56.4243 37.389 56.6097 36.5203 55.9697C35.6515 55.3296 35.4661 54.1065 36.1062 53.2378C36.7462 52.369 37.9693 52.1836 38.8381 52.8237C39.7068 53.4637 39.8922 54.6868 39.2522 55.5556Z" fill="#BD1106"/>
<path d="M32.3797 62.7523C31.8997 63.4038 30.9824 63.5429 30.3308 63.0628C29.6792 62.5828 29.5402 61.6654 30.0202 61.0139C30.5003 60.3623 31.4176 60.2233 32.0692 60.7033C32.7207 61.1833 32.8598 62.1007 32.3797 62.7523Z" fill="#BD1106"/>
</svg>
