<svg width="69" height="57" viewBox="0 0 69 57" fill="none" xmlns="http://www.w3.org/2000/svg">
<path fill-rule="evenodd" clip-rule="evenodd" d="M59.2517 25.3997C59.7007 34.6569 51.7313 43.9448 39.9739 47.1132C28.2583 50.2703 16.7416 46.2843 12.4418 38.1142C10.4546 38.6268 8.46912 37.6233 7.99312 35.8569C7.51711 34.0905 8.72948 32.2251 10.7053 31.6698C10.3176 22.4455 18.2721 13.2126 29.9876 10.0555C41.745 6.88714 53.3021 10.9129 57.5654 19.1421C59.2403 19.0626 60.7551 20.0159 61.1628 21.5287C61.5704 23.0415 60.7397 24.6269 59.2517 25.3997Z" fill="#FFD12F"/>
<path fill-rule="evenodd" clip-rule="evenodd" d="M61.2678 26.4419C61.1067 36.5051 52.3926 45.8379 40.4942 49.0442C28.7345 52.2132 16.661 48.6459 11.3632 40.2429C9.00815 40.2222 6.729 38.8524 6.06197 36.3772C5.39494 33.9019 6.67727 31.5725 8.70299 30.3712C9.06137 20.4441 17.7075 11.2933 29.4671 8.12436C41.3654 4.91802 53.589 8.60837 58.7847 17.2279C60.746 17.5722 62.5233 18.8912 63.0938 21.0083C63.6644 23.1253 62.7904 25.1588 61.2678 26.4419ZM59.2517 25.3997C59.7007 34.6569 51.7313 43.9447 39.9738 47.1131C28.2582 50.2702 16.7415 46.2843 12.4418 38.1141C10.4546 38.6268 8.46909 37.6232 7.99308 35.8568C7.51707 34.0904 8.72945 32.2251 10.7052 31.6698C10.3176 22.4455 18.272 13.2126 29.9875 10.0555C41.7449 6.88709 53.302 10.9128 57.5653 19.1421C59.2402 19.0626 60.7551 20.0159 61.1627 21.5287C61.5704 23.0415 60.7397 24.6268 59.2517 25.3997Z" fill="#755F13"/>
<path d="M32.9451 17.7301C34.3718 20.8576 31.7254 25.1277 27.0342 27.2678C22.343 29.4078 17.3835 28.6074 15.9568 25.4799C14.5301 22.3524 17.1765 18.0823 21.8677 15.9423C26.5589 13.8022 31.5184 14.6027 32.9451 17.7301Z" fill="#FFEA2F"/>
<path d="M11.4194 33.2726C11.7401 33.9755 11.3645 34.8352 10.5806 35.1928C9.79662 35.5504 8.90119 35.2706 8.58056 34.5677C8.25993 33.8648 8.63551 33.0051 9.41944 32.6475C10.2034 32.2899 11.0988 32.5698 11.4194 33.2726Z" fill="#FFEA2F"/>
<path fill-rule="evenodd" clip-rule="evenodd" d="M32.833 41.5124C46.18 37.9156 54.9247 27.2988 52.3647 17.799C51.608 14.991 49.9483 12.5949 47.6408 10.7054C52.0453 12.4157 55.5891 15.3273 57.5654 19.1421C59.2403 19.0626 60.7551 20.0159 61.1627 21.5287C61.5704 23.0415 60.7397 24.6268 59.2517 25.3997C59.7007 34.6569 51.7313 43.9446 39.9738 47.113C29.8041 49.8536 19.7842 47.2117 14.5046 41.1228C19.6977 43.018 26.2097 43.2972 32.833 41.5124Z" fill="#DEB523"/>
<path d="M51.8739 29.7555C51.202 30.4906 50.0614 30.5418 49.3264 29.8699C48.5913 29.198 48.5401 28.0574 49.212 27.3223C49.8839 26.5872 51.0245 26.536 51.7596 27.2079C52.4946 27.8798 52.5458 29.0204 51.8739 29.7555Z" fill="#C89616"/>
<path d="M53.4336 35.0671C52.7617 35.8022 51.6211 35.8534 50.8861 35.1815C50.151 34.5096 50.0998 33.369 50.7717 32.6339C51.4436 31.8989 52.5842 31.8477 53.3193 32.5196C54.0543 33.1915 54.1055 34.3321 53.4336 35.0671Z" fill="#C89616"/>
<path d="M56.7221 30.1332C56.2181 30.6845 55.3627 30.7229 54.8114 30.219C54.2601 29.715 54.2217 28.8596 54.7256 28.3083C55.2295 27.757 56.085 27.7186 56.6363 28.2225C57.1876 28.7264 57.226 29.5819 56.7221 30.1332Z" fill="#C89616"/>
<path d="M49.1756 39.7256C48.5037 40.4607 47.3631 40.5119 46.628 39.84C45.8929 39.1681 45.8417 38.0275 46.5136 37.2924C47.1855 36.5573 48.3261 36.5061 49.0612 37.178C49.7963 37.8499 49.8475 38.9905 49.1756 39.7256Z" fill="#C89616"/>
<path d="M47.6159 33.4138C46.944 34.1489 45.8034 34.2001 45.0683 33.5282C44.3332 32.8563 44.282 31.7157 44.9539 30.9806C45.6258 30.2456 46.7664 30.1943 47.5015 30.8663C48.2366 31.5382 48.2878 32.6787 47.6159 33.4138Z" fill="#C89616"/>
<path d="M43.2565 42.5163C42.3758 43.4798 40.8809 43.5469 39.9174 42.6662C38.9539 41.7856 38.8868 40.2906 39.7675 39.3271C40.6481 38.3637 42.1431 38.2966 43.1066 39.1772C44.07 40.0579 44.1371 41.5529 43.2565 42.5163Z" fill="#C89616"/>
<path d="M35.8785 44.9298C35.2065 45.6649 34.066 45.7161 33.3309 45.0442C32.5958 44.3723 32.5446 43.2317 33.2165 42.4966C33.8884 41.7615 35.029 41.7103 35.7641 42.3822C36.4992 43.0541 36.5504 44.1947 35.8785 44.9298Z" fill="#C89616"/>
<path d="M41.2796 35.9513C40.7653 36.514 39.8922 36.5532 39.3295 36.0388C38.7668 35.5245 38.7276 34.6514 39.242 34.0888C39.7563 33.5261 40.6294 33.4869 41.192 34.0012C41.7547 34.5155 41.7939 35.3886 41.2796 35.9513Z" fill="#C89616"/>
<path d="M37.8703 40.4543C37.4558 40.9077 36.7523 40.9393 36.2989 40.5249C35.8455 40.1104 35.8139 39.4069 36.2283 38.9534C36.6428 38.5 37.3463 38.4684 37.7997 38.8829C38.2532 39.2973 38.2848 40.0009 37.8703 40.4543Z" fill="#C89616"/>
<path d="M28.9088 45.9888C28.4049 46.5401 27.5495 46.5785 26.9982 46.0745C26.4469 45.5706 26.4085 44.7152 26.9124 44.1639C27.4163 43.6126 28.2718 43.5742 28.8231 44.0781C29.3744 44.582 29.4128 45.4375 28.9088 45.9888Z" fill="#C89616"/>
<path fill-rule="evenodd" clip-rule="evenodd" d="M23.98 19.4717C24.474 20.4597 24.0735 21.661 23.0856 22.155C22.2944 22.5506 21.6616 23.0626 21.1595 23.6903C20.4694 24.5528 19.2109 24.6926 18.3483 24.0026C17.4858 23.3126 17.346 22.054 18.036 21.1915C18.917 20.0903 20.0131 19.2191 21.2967 18.5773C22.2847 18.0833 23.486 18.4838 23.98 19.4717Z" fill="white"/>
<path fill-rule="evenodd" clip-rule="evenodd" d="M57.4506 24.483C59.1253 24.483 60.483 23.1253 60.483 21.4506C60.483 20.9251 60.3493 20.4309 60.1142 20C61.0566 20.5143 61.6959 21.5143 61.6959 22.6636C61.6959 24.3383 60.3383 25.6959 58.6636 25.6959C57.5143 25.6959 56.5143 25.0566 56 24.1142C56.4309 24.3493 56.9251 24.483 57.4506 24.483Z" fill="#AE8C14"/>
</svg>
