<svg width="50" height="72" viewBox="0 0 50 72" fill="none" xmlns="http://www.w3.org/2000/svg">
<path d="M38 40C38 56.5685 33.0604 62 24.5 62C15.9396 62 11 56.5685 11 40C11 23.4315 18 2 24.5 2C31 2 38 23.4315 38 40Z" fill="#FFD12F"/>
<path fill-rule="evenodd" clip-rule="evenodd" d="M36.12 58.329C33.3516 62.4474 29.2625 64 24.5 64C19.7375 64 15.6484 62.4474 12.88 58.329C10.2356 54.395 9 48.3988 9 40C9 31.4757 10.7931 21.7556 13.4218 14.1346C14.7342 10.33 16.2898 6.94513 18.0041 4.46908C18.8612 3.23114 19.8063 2.14943 20.8434 1.36105C21.883 0.570744 23.1186 0 24.5 0C25.8814 0 27.117 0.570744 28.1566 1.36105C29.1937 2.14943 30.1388 3.23114 30.9959 4.46908C32.7102 6.94513 34.2658 10.33 35.5782 14.1346C38.2069 21.7556 40 31.4757 40 40C40 48.3988 38.7644 54.395 36.12 58.329ZM24.5 62C33.0604 62 38 56.5685 38 40C38 23.4315 31 2 24.5 2C18 2 11 23.4315 11 40C11 56.5685 15.9396 62 24.5 62Z" fill="#EC9616"/>
<path d="M19.2478 30.0558C21.7186 30.1 23.7693 27.4615 23.8283 24.1626C23.8873 20.8637 25.0856 5.15614 22.6148 5.11197C20.1441 5.0678 14.9399 20.7037 14.8809 24.0026C14.8219 27.3015 16.7771 30.0116 19.2478 30.0558Z" fill="#FFE071"/>
<path fill-rule="evenodd" clip-rule="evenodd" d="M18.0168 60.5011C23.453 59.1756 27.3122 53.5898 29.4482 41.1731C32.0434 26.0875 29.454 5.8984 23.9933 2.04281C24.1625 2.01442 24.3314 2 24.5 2C31 2 38 23.4315 38 40C38 56.5685 33.0605 62 24.5 62C22.0259 62 19.8542 61.5463 18.0168 60.5011Z" fill="#F1B826"/>
<path d="M19.0063 21.1358C19.0063 22.0683 18.2504 22.8242 17.3179 22.8242C16.3854 22.8242 15.6295 22.0683 15.6295 21.1358C15.6295 20.2033 16.3854 19.4474 17.3179 19.4474C18.2504 19.4474 19.0063 20.2033 19.0063 21.1358Z" fill="#FFF730"/>
<path d="M24.0715 21.1358C24.0715 22.0683 23.3156 22.8242 22.3831 22.8242C21.4506 22.8242 20.6947 22.0683 20.6947 21.1358C20.6947 20.2033 21.4506 19.4474 22.3831 19.4474C23.3156 19.4474 24.0715 20.2033 24.0715 21.1358Z" fill="#FFF730"/>
<path d="M29.0565 21.1358C29.0565 22.0683 28.3005 22.8242 27.3681 22.8242C26.4356 22.8242 25.6796 22.0683 25.6796 21.1358C25.6796 20.2033 26.4356 19.4474 27.3681 19.4474C28.3005 19.4474 29.0565 20.2033 29.0565 21.1358Z" fill="#FFF730"/>
<path d="M34.0412 21.1358C34.0412 22.0683 33.2853 22.8242 32.3528 22.8242C31.4203 22.8242 30.6643 22.0683 30.6643 21.1358C30.6643 20.2033 31.4203 19.4474 32.3528 19.4474C33.2853 19.4474 34.0412 20.2033 34.0412 21.1358Z" fill="#FFF730"/>
<path d="M32.4333 16.0706C32.4333 17.0031 31.6773 17.759 30.7448 17.759C29.8124 17.759 29.0564 17.0031 29.0564 16.0706C29.0564 15.1381 29.8124 14.3822 30.7448 14.3822C31.6773 14.3822 32.4333 15.1381 32.4333 16.0706Z" fill="#FFF730"/>
<path d="M26.5238 16.0706C26.5238 17.0031 25.7678 17.759 24.8353 17.759C23.9028 17.759 23.1469 17.0031 23.1469 16.0706C23.1469 15.1381 23.9028 14.3822 24.8353 14.3822C25.7678 14.3822 26.5238 15.1381 26.5238 16.0706Z" fill="#FFF730"/>
<path d="M20.6143 16.0706C20.6143 17.0031 19.8583 17.759 18.9258 17.759C17.9933 17.759 17.2374 17.0031 17.2374 16.0706C17.2374 15.1381 17.9933 14.3822 18.9258 14.3822C19.8583 14.3822 20.6143 15.1381 20.6143 16.0706Z" fill="#FFF730"/>
<path d="M23.147 11.8494C23.147 12.7819 22.391 13.5378 21.4585 13.5378C20.526 13.5378 19.7701 12.7819 19.7701 11.8494C19.7701 10.9169 20.526 10.1609 21.4585 10.1609C22.391 10.1609 23.147 10.9169 23.147 11.8494Z" fill="#FFF730"/>
<path d="M29.9006 11.8494C29.9006 12.7819 29.1446 13.5378 28.2121 13.5378C27.2796 13.5378 26.5237 12.7819 26.5237 11.8494C26.5237 10.9169 27.2796 10.1609 28.2121 10.1609C29.1446 10.1609 29.9006 10.9169 29.9006 11.8494Z" fill="#FFF730"/>
<path d="M26.5238 7.62837C26.5238 8.56087 25.7678 9.31681 24.8353 9.31681C23.9028 9.31681 23.1469 8.56087 23.1469 7.62837C23.1469 6.69588 23.9028 5.93994 24.8353 5.93994C25.7678 5.93994 26.5238 6.69588 26.5238 7.62837Z" fill="#FFF730"/>
<path d="M21.5388 26.2816C21.5388 27.2141 20.7829 27.97 19.8504 27.97C18.9179 27.97 18.162 27.2141 18.162 26.2816C18.162 25.3491 18.9179 24.5932 19.8504 24.5932C20.7829 24.5932 21.5388 25.3491 21.5388 26.2816Z" fill="#FFF730"/>
<path d="M26.5238 26.2011C26.5238 27.1336 25.7678 27.8895 24.8353 27.8895C23.9028 27.8895 23.1469 27.1336 23.1469 26.2011C23.1469 25.2686 23.9028 24.5127 24.8353 24.5127C25.7678 24.5127 26.5238 25.2686 26.5238 26.2011Z" fill="#FFF730"/>
<path d="M33.2776 26.2011C33.2776 27.1336 32.5217 27.8895 31.5892 27.8895C30.6567 27.8895 29.9007 27.1336 29.9007 26.2011C29.9007 25.2686 30.6567 24.5127 31.5892 24.5127C32.5217 24.5127 33.2776 25.2686 33.2776 26.2011Z" fill="#FFF730"/>
<path d="M36.5741 31.2664C36.5741 32.1989 35.8182 32.9548 34.8857 32.9548C33.9532 32.9548 33.1973 32.1989 33.1973 31.2664C33.1973 30.3339 33.9532 29.578 34.8857 29.578C35.8182 29.578 36.5741 30.3339 36.5741 31.2664Z" fill="#FFF730"/>
<path d="M29.9006 31.2664C29.9006 32.1989 29.1446 32.9548 28.2121 32.9548C27.2796 32.9548 26.5237 32.1989 26.5237 31.2664C26.5237 30.3339 27.2796 29.578 28.2121 29.578C29.1446 29.578 29.9006 30.3339 29.9006 31.2664Z" fill="#FFF730"/>
<path d="M22.3027 31.2664C22.3027 32.1989 21.5467 32.9548 20.6142 32.9548C19.6817 32.9548 18.9258 32.1989 18.9258 31.2664C18.9258 30.3339 19.6817 29.578 20.6142 29.578C21.5467 29.578 22.3027 30.3339 22.3027 31.2664Z" fill="#FFF730"/>
<path d="M17.2375 28.7337C17.2375 29.6662 16.4815 30.4221 15.549 30.4221C14.6165 30.4221 13.8606 29.6662 13.8606 28.7337C13.8606 27.8012 14.6165 27.0453 15.549 27.0453C16.4815 27.0453 17.2375 27.8012 17.2375 28.7337Z" fill="#FFF730"/>
<path d="M18.0013 35.4071C18.0013 36.3395 17.2454 37.0955 16.3129 37.0955C15.3804 37.0955 14.6244 36.3395 14.6244 35.4071C14.6244 34.4746 15.3804 33.7186 16.3129 33.7186C17.2454 33.7186 18.0013 34.4746 18.0013 35.4071Z" fill="#FFF730"/>
<path d="M23.7499 36.2514C23.7499 37.1839 22.9939 37.9398 22.0614 37.9398C21.1289 37.9398 20.373 37.1839 20.373 36.2514C20.373 35.3189 21.1289 34.5629 22.0614 34.5629C22.9939 34.5629 23.7499 35.3189 23.7499 36.2514Z" fill="#FFF730"/>
<path d="M30.4234 36.3317C30.4234 37.2642 29.6675 38.0202 28.735 38.0202C27.8025 38.0202 27.0466 37.2642 27.0466 36.3317C27.0466 35.3992 27.8025 34.6433 28.735 34.6433C29.6675 34.6433 30.4234 35.3992 30.4234 36.3317Z" fill="#FFF730"/>
<path d="M36.2525 38.1407C36.2525 39.0732 35.4965 39.8292 34.564 39.8292C33.6315 39.8292 32.8756 39.0732 32.8756 38.1407C32.8756 37.2082 33.6315 36.4523 34.564 36.4523C35.4965 36.4523 36.2525 37.2082 36.2525 38.1407Z" fill="#FFF730"/>
<path d="M26.0816 42.7639C26.0816 43.6964 25.3257 44.4523 24.3932 44.4523C23.4607 44.4523 22.7047 43.6964 22.7047 42.7639C22.7047 41.8314 23.4607 41.0754 24.3932 41.0754C25.3257 41.0754 26.0816 41.8314 26.0816 42.7639Z" fill="#FFF730"/>
<path d="M27.0062 48.3116C27.0062 49.2441 26.2502 50 25.3177 50C24.3852 50 23.6293 49.2441 23.6293 48.3116C23.6293 47.3791 24.3852 46.6232 25.3177 46.6232C26.2502 46.6232 27.0062 47.3791 27.0062 48.3116Z" fill="#FFF730"/>
<path d="M31.4285 42.1608C31.4285 43.0933 30.6725 43.8492 29.74 43.8492C28.8075 43.8492 28.0516 43.0933 28.0516 42.1608C28.0516 41.2283 28.8075 40.4723 29.74 40.4723C30.6725 40.4723 31.4285 41.2283 31.4285 42.1608Z" fill="#FFF730"/>
<path d="M21.3781 42.2412C21.3781 43.1737 20.6222 43.9297 19.6897 43.9297C18.7572 43.9297 18.0012 43.1737 18.0012 42.2412C18.0012 41.3087 18.7572 40.5528 19.6897 40.5528C20.6222 40.5528 21.3781 41.3087 21.3781 42.2412Z" fill="#FFF730"/>
<path fill-rule="evenodd" clip-rule="evenodd" d="M22.9129 6.04895C23.8569 6.62245 24.1573 7.85264 23.5838 8.79666C23.1462 9.51691 22.8961 10.2495 22.8095 11.0086C22.6844 12.106 21.6933 12.8943 20.5959 12.7691C19.4984 12.644 18.7102 11.6529 18.8353 10.5555C18.9905 9.19391 19.4417 7.91063 20.1652 6.71983C20.7387 5.77581 21.9689 5.47545 22.9129 6.04895Z" fill="white"/>
<path d="M27 53C27 54.1046 26.1046 55 25 55C23.8954 55 23 54.1046 23 53C23 51.8954 23.8954 51 25 51C26.1046 51 27 51.8954 27 53Z" fill="#F3D157"/>
<path d="M40.4211 57.7287C37.0526 67.239 28.0702 69.8722 24 70C24.4211 65.9096 23.4165 55.9968 29.1429 47.1002C34.8692 38.2035 45.193 38.2993 48 39.7053C45.0526 41.6227 44.6316 45.841 40.4211 57.7287Z" fill="#76C611"/>
<path fill-rule="evenodd" clip-rule="evenodd" d="M22.5364 71.363C22.1431 70.9407 21.9514 70.3692 22.0105 69.7952C22.0762 69.1568 22.0987 68.2889 22.1259 67.2401C22.251 62.4157 22.4753 53.7639 27.4611 46.0177C30.6452 41.0707 35.1284 38.6127 39.1809 37.599C41.1991 37.0942 43.1268 36.9422 44.7678 37.0187C46.362 37.093 47.8451 37.3909 48.8957 37.9171C49.5365 38.2381 49.9566 38.8774 49.9969 39.593C50.0371 40.3086 49.6914 40.991 49.0906 41.3818C48.2165 41.9504 47.5545 42.9073 46.5662 45.655C46.153 46.8038 45.7111 48.1744 45.1666 49.8633C45.0711 50.1596 44.9725 50.4656 44.8702 50.782C44.1904 52.8859 43.368 55.3988 42.3063 58.3965C38.5627 68.966 28.6097 71.8562 24.0628 71.999C23.4861 72.0171 22.9296 71.7853 22.5364 71.363ZM24.1143 67.9937C24.1239 67.6999 24.1327 67.3925 24.1419 67.0725C24.2827 62.1663 24.5084 54.3005 29.1429 47.1002C33.7635 39.9214 41.3775 38.5976 45.6204 39.0927C46.6357 39.2112 47.458 39.4338 48 39.7053C47.3829 40.1068 46.8766 40.6091 46.423 41.2615C45.3325 42.8302 44.5471 45.2666 43.2612 49.2556C42.5274 51.532 41.6306 54.3139 40.4211 57.7287C37.5368 65.8719 30.5366 68.973 26.0285 69.7766C25.2717 69.9115 24.5851 69.9816 24 70C24.0581 69.436 24.089 68.7612 24.1143 67.9937Z" fill="#548F09"/>
<path fill-rule="evenodd" clip-rule="evenodd" d="M24.2664 63.8852C28.4221 63.1313 33.2631 60.8979 36.5955 55.6283C38.5317 52.5665 40.0228 50.0525 41.2428 47.9953C44.2482 42.9281 45.6093 40.6332 47.9296 39.7519C45.8808 41.1294 45.0614 43.6709 43.2612 49.2556C42.5273 51.5319 41.6305 54.3139 40.4211 57.7287C37.0526 67.2389 28.0702 69.8721 24 70C24.0803 69.22 24.1087 68.2284 24.1419 67.0725C24.1694 66.114 24.2002 65.0426 24.2664 63.8852ZM47.9705 39.7247C47.9803 39.7182 47.9901 39.7117 48 39.7053C47.956 39.6833 47.9102 39.6616 47.8627 39.6403C47.9001 39.6685 47.936 39.6966 47.9705 39.7247Z" fill="#67AE0E"/>
<path d="M9.21209 36.7327C4.80395 33.7386 3.41934 29.6634 3.27805 28C2.14776 28 0.734896 31.9921 4.12577 47.9604C7.51665 63.9287 18.537 69.3069 23.6233 70C29.5573 48.7921 14.7223 40.4752 9.21209 36.7327Z" fill="#8DEA17"/>
<path fill-rule="evenodd" clip-rule="evenodd" d="M3.27804 26C4.31699 26 5.18293 26.7955 5.27086 27.8307C5.36372 28.924 6.45133 32.4398 10.3358 35.0782C10.6322 35.2795 10.9641 35.499 11.3254 35.7379C14.1811 37.6259 18.8712 40.7268 22.3452 45.6663C26.3522 51.3637 28.6753 59.3667 25.5493 70.5389C25.2802 71.5007 24.3429 72.1165 23.3533 71.9817C17.4848 71.182 5.74665 65.2219 2.16938 48.3758C0.461411 40.3327 -0.0690102 35.167 0.00701287 31.9449C0.0446149 30.3512 0.232216 29.0916 0.588628 28.1592C0.884485 27.3852 1.6555 26 3.27804 26ZM3.19694 28.0069C2.71506 28.089 2.20437 28.9173 2.04813 31.0933C1.84326 33.9465 2.2478 39.1167 4.12576 47.9604C7.51663 63.9287 18.537 69.3069 23.6233 70C29.2203 49.9966 16.3404 41.4616 10.2357 37.4162C9.86807 37.1726 9.52503 36.9452 9.21207 36.7327C6.48964 34.8836 4.92044 32.6221 4.08513 30.771C3.95415 30.4808 3.84121 30.2006 3.7447 29.9337C3.46012 29.1467 3.31838 28.475 3.27804 28C3.25114 28 3.22409 28.0023 3.19694 28.0069ZM4.38768 29.4482C4.38803 29.4497 4.38109 29.4647 4.36583 29.4889C4.37971 29.4589 4.38734 29.4468 4.38768 29.4482Z" fill="#548F09"/>
<path d="M9.07643 40.7822C6.58487 39.1426 5.5 38.5 5 37.5C5.5 42 5.08343 40.7554 7 49.5C7.87669 53.5 12.347 60.6205 15.2219 61C18.5759 49.3861 12.1909 42.8317 9.07643 40.7822Z" fill="#A4FC34"/>
</svg>
