<svg width="53" height="67" viewBox="0 0 53 67" fill="none" xmlns="http://www.w3.org/2000/svg">
<path d="M50.0192 36.9542C50.2158 45.3721 45.9482 57.9565 35.0575 63.0889C32.3204 64.3788 30.7993 63.1272 27.4981 63.2863C24.5485 63.4285 23.6373 64.4687 20.828 63.4629C9.1623 59.2862 3.98246 47.0518 3.77179 38.0348C3.49637 26.2463 13.1393 20.0187 26.6669 27.7114C38.9415 19.8608 49.7437 25.1658 50.0192 36.9542Z" fill="#FF542F"/>
<path fill-rule="evenodd" clip-rule="evenodd" d="M26.6097 25.4005C19.9178 21.8818 13.7803 21.4229 9.13652 23.785C4.20098 26.2956 1.62205 31.6464 1.7724 38.0815C1.99501 47.6094 7.44847 60.7969 20.1539 65.3459C21.9095 65.9745 23.1841 65.9794 24.4274 65.7799C24.8545 65.7113 25.2031 65.6391 25.531 65.5712C26.1595 65.441 26.712 65.3266 27.5944 65.284C28.6433 65.2334 29.3986 65.3416 30.2571 65.4646C30.5707 65.5096 30.8982 65.5565 31.2587 65.5983C32.621 65.7565 34.0939 65.754 35.9102 64.8981C47.7637 59.3119 52.2265 45.8015 52.0187 36.9076C51.8662 30.3825 48.7493 25.3102 43.6265 23.1282C38.8335 21.0866 32.7683 21.7808 26.6097 25.4005ZM35.0576 63.0889C45.9483 57.9565 50.2159 45.3722 50.0192 36.9543C49.7438 25.1658 38.9416 19.8608 26.667 27.7114C13.1394 20.0187 3.49643 26.2463 3.77186 38.0348C3.98253 47.0518 9.16237 59.2862 20.8281 63.4629C22.652 64.116 23.6759 63.9065 24.977 63.6403C25.6798 63.4966 26.4636 63.3362 27.4981 63.2863C28.7535 63.2258 29.7514 63.3693 30.6566 63.4995C32.132 63.7116 33.3612 63.8883 35.0576 63.0889Z" fill="#734125"/>
<path fill-rule="evenodd" clip-rule="evenodd" d="M30.6095 57.7512C41.5002 52.6188 44.8782 40.0345 44.6815 31.6166C44.6239 29.1514 44.106 26.9698 43.2105 25.1327C47.2706 27.036 49.8855 31.231 50.0192 36.9543C50.2159 45.3722 45.9483 57.9565 35.0576 63.0889C33.3613 63.8883 32.132 63.7116 30.6566 63.4995C29.7514 63.3693 28.7535 63.2258 27.4981 63.2864C26.4636 63.3362 25.6798 63.4966 24.977 63.6404C23.6759 63.9066 22.652 64.116 20.8281 63.463C16.5613 61.9353 13.1622 59.3297 10.5565 56.1978C11.7931 56.952 13.139 57.6019 14.6008 58.1253C16.4821 58.7988 17.9111 58.5548 19.5357 58.2774C20.3371 58.1406 21.1861 57.9956 22.1605 57.9487C23.3837 57.8897 24.4848 58.0244 25.5254 58.1518C27.2931 58.3681 28.8866 58.5632 30.6095 57.7512Z" fill="#ED4A27"/>
<path d="M43.3817 34.7414C43.2459 35.7146 42.3469 36.3935 41.3737 36.2577C40.4004 36.1219 39.7216 35.2229 39.8573 34.2497C39.9931 33.2765 40.8921 32.5976 41.8653 32.7334C42.8385 32.8691 43.5174 33.7681 43.3817 34.7414Z" fill="#C53622"/>
<path d="M48.1973 39.8925C48.0616 40.8657 47.1626 41.5446 46.1893 41.4088C45.2161 41.2731 44.5372 40.3741 44.673 39.4008C44.8088 38.4276 45.7078 37.7487 46.681 37.8845C47.6542 38.0203 48.3331 38.9193 48.1973 39.8925Z" fill="#C53622"/>
<path d="M48.0944 33.1531C47.9926 33.883 47.3183 34.3922 46.5884 34.2904C45.8585 34.1886 45.3493 33.5143 45.4511 32.7844C45.553 32.0545 46.2272 31.5453 46.9571 31.6471C47.687 31.749 48.1962 32.4232 48.0944 33.1531Z" fill="#C53622"/>
<path d="M46.4476 46.0808C46.3118 47.0541 45.4128 47.7329 44.4396 47.5972C43.4664 47.4614 42.7875 46.5624 42.9232 45.5892C43.059 44.616 43.958 43.9371 44.9312 44.0729C45.9045 44.2086 46.5833 45.1076 46.4476 46.0808Z" fill="#C53622"/>
<path d="M41.6319 40.9296C41.4961 41.9028 40.5971 42.5817 39.6239 42.4459C38.6507 42.3102 37.9718 41.4112 38.1076 40.4379C38.2433 39.4647 39.1423 38.7858 40.1156 38.9216C41.0888 39.0574 41.7677 39.9564 41.6319 40.9296Z" fill="#C53622"/>
<path d="M43.5112 52.8261C43.3754 53.7993 42.4764 54.4782 41.5032 54.3424C40.53 54.2067 39.8511 53.3076 39.9868 52.3344C40.1226 51.3612 41.0216 50.6823 41.9948 50.8181C42.9681 50.9539 43.6469 51.8529 43.5112 52.8261Z" fill="#C53622"/>
<path d="M39.9361 47.4326C39.8003 48.4059 38.9013 49.0848 37.9281 48.949C36.9549 48.8132 36.276 47.9142 36.4118 46.941C36.5475 45.9678 37.4465 45.2889 38.4198 45.4247C39.393 45.5604 40.0719 46.4594 39.9361 47.4326Z" fill="#C53622"/>
<path d="M39.9838 56.7753C39.882 57.5052 39.2077 58.0144 38.4778 57.9126C37.7479 57.8108 37.2387 57.1365 37.3405 56.4066C37.4424 55.6767 38.1166 55.1675 38.8465 55.2693C39.5764 55.3712 40.0856 56.0454 39.9838 56.7753Z" fill="#C53622"/>
<path d="M36.648 9.49906C36.648 9.49906 38.6246 17.6492 36.5433 22.0865C34.0347 27.4347 26.4591 27.7723 26.4591 27.7723C26.4591 27.7723 24.1654 21.5204 27.1965 16.0842C29.5282 11.9026 36.648 9.49906 36.648 9.49906Z" fill="#7CD623"/>
<path fill-rule="evenodd" clip-rule="evenodd" d="M38.5917 9.02767L36.648 9.49906L36.0083 7.60412C36.5397 7.42473 37.122 7.47672 37.6133 7.74741C38.1045 8.01809 38.4595 8.48261 38.5917 9.02767ZM34.7682 10.2536C35.8811 9.75796 36.648 9.49906 36.648 9.49906C36.648 9.49906 36.8368 10.2776 37.0363 11.4845C37.4822 14.1824 37.9813 19.0207 36.5433 22.0865C34.0347 27.4347 26.4591 27.7723 26.4591 27.7723C26.4591 27.7723 24.1654 21.5204 27.1965 16.0842C28.7629 13.275 32.4903 11.2683 34.7682 10.2536ZM26.4591 27.7723C24.5815 28.4612 24.5812 28.4605 24.581 28.4598L24.5792 28.4548L24.576 28.4461L24.5673 28.4218C24.5605 28.4025 24.5516 28.3772 24.541 28.346C24.5198 28.2837 24.4913 28.1978 24.4577 28.0902C24.3904 27.8751 24.3019 27.5721 24.2077 27.1954C24.02 26.4441 23.8068 25.3868 23.6986 24.1397C23.4842 21.6684 23.6705 18.3012 25.4497 15.1103C26.907 12.4966 29.7059 10.6247 31.843 9.46549C32.9553 8.86216 33.9846 8.40154 34.7358 8.09134C35.1126 7.93574 35.4226 7.81669 35.6421 7.7353C35.7519 7.69458 35.8393 7.6632 35.9012 7.6413C35.9322 7.63035 35.9569 7.62177 35.9748 7.61557L35.9967 7.60805L36.0064 7.60476L36.0083 7.60412C36.0088 7.60397 36.0083 7.60412 36.648 9.49906C38.5917 9.02768 38.5916 9.02727 38.5917 9.02767L38.5927 9.03196L38.5944 9.03923L38.6 9.06258L38.6189 9.14367C38.6347 9.21263 38.6569 9.31101 38.6838 9.43588C38.7377 9.68546 38.811 10.0417 38.8915 10.4812C39.0522 11.3577 39.2442 12.5774 39.368 13.949C39.6055 16.5797 39.6385 20.1974 38.354 22.9359C36.7653 26.3228 33.6378 27.9985 31.2061 28.8279C29.9639 29.2516 28.819 29.4847 27.9859 29.6128C27.5672 29.6772 27.2214 29.7159 26.9743 29.7388C26.8506 29.7503 26.7512 29.7579 26.6792 29.7627C26.6432 29.7651 26.614 29.7669 26.5921 29.7681L26.5646 29.7696L26.555 29.77L26.5512 29.7702L26.5496 29.7703C26.5489 29.7703 26.5482 29.7703 26.4591 27.7723ZM24.5815 28.4612L26.4591 27.7723L26.5482 29.7703C25.6774 29.8092 24.8817 29.2795 24.5815 28.4612Z" fill="#156319"/>
<path d="M35.2034 22.1167C37.0713 18.7666 35.9721 11.9531 35.9721 11.9531C30.4197 17.7215 29.0221 24.1307 28.7049 26.445C28.7049 26.445 33.3354 25.4668 35.2034 22.1167Z" fill="#6FC21C"/>
<path d="M16.0228 18.9155C17.9455 19.3749 24.32 24.7989 26.1071 28.1762C26.2562 28.458 27.0252 28.017 26.8987 27.7702C25.8796 24.5534 22.6291 16.9603 20.0152 14.6719C16.5721 14.5994 15.9146 18.192 16.0228 18.9155Z" fill="#943D31"/>
<path fill-rule="evenodd" clip-rule="evenodd" d="M15.558 20.8609C14.7644 20.6712 14.1656 20.0185 14.0448 19.2115C13.9642 18.6728 14.0434 18.0312 14.1673 17.4905C14.3048 16.8902 14.5521 16.1743 14.9673 15.4747C15.8367 14.0095 17.4711 12.618 20.0573 12.6725C20.5273 12.6824 20.9789 12.8575 21.3326 13.1672C22.2017 13.9281 23.0165 15.0224 23.7386 16.1596C24.4784 17.3248 25.1973 18.6582 25.8511 19.9933C27.1313 22.6071 28.2219 25.3499 28.7758 27.0738C29.1866 28.127 28.5988 28.9894 28.4183 29.2178C28.1487 29.5588 27.8221 29.7872 27.5603 29.9293C27.3036 30.0686 26.9095 30.2336 26.4337 30.2627C25.9774 30.2907 24.9061 30.1829 24.3393 29.1117C23.6213 27.7548 21.8092 25.7507 19.7843 23.9441C18.8015 23.0672 17.8309 22.2924 17.0129 21.721C16.6033 21.4349 16.2522 21.2139 15.9714 21.0596C15.7177 20.9201 15.588 20.8724 15.5613 20.8625C15.5557 20.8604 15.5546 20.8601 15.558 20.8609ZM26.8987 27.7703C26.8975 27.7667 26.8963 27.763 26.8952 27.7593C26.7597 27.3324 26.5852 26.8291 26.3784 26.2719C26.1157 25.5642 25.8008 24.7694 25.4474 23.9335C23.9778 20.4578 21.8412 16.2706 20.0152 14.672C16.5721 14.5995 15.9146 18.1921 16.0228 18.9156C17.409 19.2468 21.1089 22.1584 23.7357 25.0231C24.2915 25.6293 24.7993 26.2334 25.227 26.8106C25.5452 27.24 25.819 27.6545 26.0352 28.0438C26.06 28.0883 26.0839 28.1325 26.1071 28.1763C26.2562 28.4581 27.0252 28.0171 26.8987 27.7703ZM24.9746 28.3195C25.008 28.437 25.0552 28.5585 25.1191 28.6831C25.0682 28.5839 25.0257 28.4806 24.992 28.3743C24.9863 28.3562 24.9805 28.3379 24.9746 28.3195Z" fill="#633526"/>
<path d="M20.6808 14.7387C21.3091 15.4089 20.8714 16.8398 19.7034 17.9347C18.5353 19.0297 17.0791 19.374 16.4509 18.7039C15.8227 18.0337 16.2604 16.6028 17.4284 15.5079C18.5965 14.413 20.0526 14.0686 20.6808 14.7387Z" fill="#C26649"/>
<path d="M17.1792 27.7765C19.8242 29.0782 20.3854 33.3497 18.4328 37.3171C16.4802 41.2846 12.7531 43.4455 10.1082 42.1438C7.46324 40.842 6.902 36.5705 8.85462 32.6031C10.8072 28.6357 14.5343 26.4747 17.1792 27.7765Z" fill="#FF896F"/>
<path fill-rule="evenodd" clip-rule="evenodd" d="M14.1171 30.9608C14.9653 31.6683 15.0794 32.9295 14.3719 33.7777C13.9111 34.3301 13.6096 34.9131 13.4417 35.5371C13.1548 36.6037 12.0575 37.2358 10.9908 36.9489C9.9242 36.6619 9.29213 35.5646 9.57907 34.498C9.90447 33.2884 10.4867 32.1908 11.3002 31.2156C12.0077 30.3673 13.2689 30.2533 14.1171 30.9608Z" fill="white"/>
</svg>
