<svg width="57" height="77" viewBox="0 0 57 77" fill="none" xmlns="http://www.w3.org/2000/svg">
<path d="M50 51C50 64.2548 39.2548 75 26 75C12.7452 75 2 64.2548 2 51C2 37.7452 12.7452 27 26 27C39.2548 27 50 37.7452 50 51Z" fill="#FFAC2F"/>
<path fill-rule="evenodd" clip-rule="evenodd" d="M52 51C52 65.3594 40.3594 77 26 77C11.6406 77 0 65.3594 0 51C0 36.6406 11.6406 25 26 25C40.3594 25 52 36.6406 52 51ZM26 75C39.2548 75 50 64.2548 50 51C50 37.7452 39.2548 27 26 27C12.7452 27 2 37.7452 2 51C2 64.2548 12.7452 75 26 75Z" fill="#884A28"/>
<path fill-rule="evenodd" clip-rule="evenodd" d="M26 75C39.2548 75 50 64.2548 50 51C50 37.7452 39.2548 27 26 27C25.0469 27 24.1068 27.0556 23.1827 27.1636C32.2316 28.3715 39.2116 36.1206 39.2116 45.5C39.2116 55.7173 30.9288 64 20.7116 64C11.0818 64 3.17042 56.6423 2.29251 47.242C2.09997 48.4664 2 49.7215 2 51C2 64.2548 12.7452 75 26 75Z" fill="#FF862F"/>
<path d="M41.2143 44.8572C41.2143 45.9223 40.3509 46.7857 39.2857 46.7857C38.2206 46.7857 37.3572 45.9223 37.3572 44.8572C37.3572 43.792 38.2206 42.9286 39.2857 42.9286C40.3509 42.9286 41.2143 43.792 41.2143 44.8572Z" fill="#DD7429"/>
<path d="M47 48.7143C47 49.7795 46.1365 50.6429 45.0714 50.6429C44.0063 50.6429 43.1428 49.7795 43.1428 48.7143C43.1428 47.6492 44.0063 46.7858 45.0714 46.7858C46.1365 46.7858 47 47.6492 47 48.7143Z" fill="#DD7429"/>
<path d="M46.0357 42.4464C46.0357 43.2453 45.3881 43.8929 44.5893 43.8929C43.7904 43.8929 43.1428 43.2453 43.1428 42.4464C43.1428 41.6476 43.7904 41 44.5893 41C45.3881 41 46.0357 41.6476 46.0357 42.4464Z" fill="#DD7429"/>
<path d="M47.2114 57C47.2114 58.6569 45.8683 60 44.2114 60C42.5546 60 41.2114 58.6569 41.2114 57C41.2114 55.3431 42.5546 54 44.2114 54C45.8683 54 47.2114 55.3431 47.2114 57Z" fill="#DD7429"/>
<path d="M41.2143 51.6072C41.2143 52.6723 40.3509 53.5357 39.2857 53.5357C38.2206 53.5357 37.3572 52.6723 37.3572 51.6072C37.3572 50.542 38.2206 49.6786 39.2857 49.6786C40.3509 49.6786 41.2143 50.542 41.2143 51.6072Z" fill="#DD7429"/>
<path d="M43.1428 63.25C43.1428 64.3151 42.2793 65.1786 41.2142 65.1786C40.1491 65.1786 39.2856 64.3151 39.2856 63.25C39.2856 62.1849 40.1491 61.3214 41.2142 61.3214C42.2793 61.3214 43.1428 62.1849 43.1428 63.25Z" fill="#DD7429"/>
<path d="M38.0686 66.9286C38.0686 67.9937 37.2051 68.8571 36.14 68.8571C35.0749 68.8571 34.2114 67.9937 34.2114 66.9286C34.2114 65.8635 35.0749 65 36.14 65C37.2051 65 38.0686 65.8635 38.0686 66.9286Z" fill="#DD7429"/>
<path d="M38.3571 60.3572C38.3571 61.4223 37.4937 62.2857 36.4286 62.2857C35.3635 62.2857 34.5 61.4223 34.5 60.3572C34.5 59.292 35.3635 58.4286 36.4286 58.4286C37.4937 58.4286 38.3571 59.292 38.3571 60.3572Z" fill="#DD7429"/>
<path d="M31.2857 69.5536C31.2857 70.3524 30.6381 71 29.8393 71C29.0404 71 28.3928 70.3524 28.3928 69.5536C28.3928 68.7548 29.0404 68.1072 29.8393 68.1072C30.6381 68.1072 31.2857 68.7548 31.2857 69.5536Z" fill="#DD7429"/>
<path d="M44.843 26.6173C44.843 26.6173 40.2719 18.809 35.6255 18.6057C30.979 18.4024 27.0283 22.4442 27.0283 22.4442C27.0283 22.4442 30.6109 26.8156 35.2574 27.0188C39.9038 27.2221 44.843 26.6173 44.843 26.6173Z" fill="#64AC1D"/>
<path fill-rule="evenodd" clip-rule="evenodd" d="M46.5688 25.6068L44.8428 26.6172L45.0859 28.6024C45.7542 28.5206 46.3365 28.108 46.6352 27.5045C46.9339 26.9011 46.909 26.1879 46.5688 25.6068ZM27.0281 22.4442C25.5979 21.0461 25.5983 21.0457 25.5987 21.0452L25.602 21.042L25.6075 21.0363L25.6231 21.0206C25.6354 21.0082 25.6517 20.9921 25.6717 20.9724C25.7117 20.933 25.767 20.8795 25.8368 20.8139C25.9762 20.6828 26.1742 20.5027 26.4243 20.2906C26.9225 19.868 27.6385 19.3089 28.5206 18.755C30.2455 17.6717 32.808 16.4805 35.7127 16.6076C37.4051 16.6816 38.9317 17.4324 40.176 18.3071C41.4366 19.1934 42.5626 20.3163 43.4842 21.3736C44.4125 22.4387 45.1774 23.4883 45.7086 24.2676C45.9754 24.6589 46.1861 24.9864 46.332 25.2192C46.405 25.3357 46.462 25.4288 46.5018 25.4946C46.5217 25.5275 46.5373 25.5536 46.5485 25.5725L46.562 25.5953L46.5663 25.6025L46.5678 25.605L46.5688 25.6068C46.5691 25.6072 46.5688 25.6068 44.8428 26.6172C45.0859 28.6024 45.0861 28.6024 45.0859 28.6024L45.0668 28.6047L45.0194 28.6103C44.9787 28.6151 44.9198 28.6219 44.8441 28.6304C44.6927 28.6474 44.4737 28.6711 44.1974 28.6987C43.6451 28.7539 42.862 28.8249 41.9307 28.8895C40.0768 29.0179 37.5978 29.1231 35.1698 29.0169C32.2651 28.8898 29.8164 27.4794 28.1927 26.2496C27.3624 25.6207 26.6979 25.0012 26.2385 24.5368C26.0079 24.3036 25.8264 24.1069 25.699 23.9641C25.6352 23.8927 25.5848 23.8345 25.5483 23.7918C25.5301 23.7705 25.5154 23.753 25.5041 23.7396L25.49 23.7226L25.4849 23.7164L25.482 23.7129C25.4816 23.7124 25.4812 23.7119 27.0281 22.4442ZM27.0281 22.4442L25.5979 21.0461C24.8853 21.7752 24.835 22.9235 25.4812 23.7119L27.0281 22.4442ZM43.5966 24.7384C41.9229 22.4143 38.7916 18.7442 35.6253 18.6057C30.9788 18.4024 27.0281 22.4442 27.0281 22.4442C27.0281 22.4442 30.6107 26.8155 35.2572 27.0188C37.9505 27.1366 40.7423 26.9829 42.6133 26.8329C43.9701 26.7241 44.8428 26.6172 44.8428 26.6172C44.8428 26.6172 44.379 25.8249 43.5966 24.7384Z" fill="#156319"/>
<path d="M50.5672 8.30764C50.5672 8.30764 45.074 17.986 39.2112 21.0764C33.3485 24.1669 25.7979 21.3646 25.7979 21.3646C25.7979 21.3646 27.7527 13.5515 33.6154 10.4611C39.4781 7.37056 50.5672 8.30764 50.5672 8.30764Z" fill="#87D623"/>
<path fill-rule="evenodd" clip-rule="evenodd" d="M52.3065 9.29491L50.5671 8.30768L50.7356 6.31478C51.415 6.3722 52.0184 6.77184 52.3364 7.37504C52.6544 7.97825 52.6431 8.70189 52.3065 9.29491ZM48.3042 8.19591C49.6923 8.23375 50.5671 8.30768 50.5671 8.30768C50.5671 8.30768 50.1338 9.07122 49.3806 10.2379C47.4521 13.2248 43.4272 18.854 39.2112 21.0765C33.3485 24.167 25.7979 21.3646 25.7979 21.3646C25.7979 21.3646 27.7526 13.5516 33.6154 10.4611C37.8314 8.23865 44.7501 8.09902 48.3042 8.19591ZM25.7979 21.3646C23.8577 20.8792 23.8578 20.8786 23.858 20.878L23.8592 20.8731L23.8615 20.8641L23.8683 20.8377C23.8739 20.8164 23.8815 20.7876 23.8912 20.7519C23.9106 20.6804 23.9385 20.5808 23.9753 20.4562C24.0489 20.2072 24.1585 19.8572 24.3084 19.4314C24.6073 18.5824 25.071 17.4183 25.7352 16.1461C27.0422 13.6428 29.2365 10.5085 32.6827 8.69186C36.035 6.92476 40.6608 6.38099 44.2031 6.22733C46.0202 6.14851 47.6435 6.16988 48.8128 6.21077C49.3984 6.23126 49.8727 6.25673 50.2035 6.27732C50.3689 6.28761 50.4986 6.2967 50.5886 6.30335C50.6336 6.30668 50.6687 6.3094 50.6933 6.31135L50.7224 6.3137L50.731 6.3144L50.7356 6.31478C50.7359 6.31482 50.7356 6.31478 50.5671 8.30768C52.3065 9.29491 52.3067 9.29456 52.3065 9.29491L52.3043 9.29887L52.3 9.30635L52.2855 9.33169C52.2732 9.35314 52.2556 9.38361 52.2329 9.42261C52.1875 9.5006 52.1217 9.61276 52.0367 9.75507C51.8668 10.0396 51.6198 10.4453 51.3058 10.94C50.6788 11.9278 49.7791 13.2791 48.6872 14.7338C46.5587 17.5694 43.4961 21.0786 40.1438 22.8457C36.6976 24.6624 32.8718 24.7015 30.0679 24.3653C28.6429 24.1944 27.4205 23.9191 26.5511 23.6859C26.1152 23.569 25.7644 23.4617 25.5174 23.3817C25.3938 23.3416 25.2959 23.3083 25.226 23.284C25.191 23.2718 25.163 23.2618 25.1422 23.2543L25.1166 23.245L25.1079 23.2418L25.1032 23.2401C25.1026 23.2399 25.102 23.2397 25.7979 21.3646ZM23.8577 20.8792L25.7979 21.3646L25.102 23.2397C24.1463 22.8849 23.6103 21.8682 23.8577 20.8792Z" fill="#156319"/>
<path d="M38.7036 20.1847C43.6882 17.5571 48.5108 9.6171 48.5108 9.6171C37.1763 12.5054 29.7486 18.2214 27.4516 20.7183C27.4516 20.7183 33.719 22.8123 38.7036 20.1847Z" fill="#79C01E"/>
<path d="M16.9462 16.1521C19.0002 17 24.0002 25 25.3909 29.0637C25.5069 29.4027 26.4382 29.0482 26.3411 28.7521C25.7749 25.0014 23.5002 16 21.0002 13C18.0691 13.1741 16.9532 15.3297 16.9462 16.1521Z" fill="#8C5936"/>
<path fill-rule="evenodd" clip-rule="evenodd" d="M16.1648 17.9931C15.4209 17.6775 14.9393 16.9445 14.9462 16.1351C14.9552 15.0713 15.5467 13.8585 16.4438 12.9374C17.4282 11.9268 18.9046 11.1209 20.8815 11.0035C21.5156 10.9658 22.1299 11.2316 22.5365 11.7196C23.345 12.6898 24.0461 14.0221 24.6449 15.4045C25.2568 16.8172 25.8176 18.4147 26.3073 20.0064C27.2679 23.1289 27.9947 26.3597 28.3037 28.3565C28.5482 29.47 27.8276 30.239 27.6056 30.4437C27.2776 30.7461 26.9071 30.9274 26.6133 31.0314C26.325 31.1335 25.8963 31.2372 25.4105 31.1905C24.9442 31.1457 23.8941 30.8673 23.4985 29.7113C22.8785 27.8995 21.3778 25.0389 19.7349 22.4835C18.9225 21.2199 18.1108 20.0867 17.4017 19.2381C17.0464 18.8128 16.7395 18.4863 16.4906 18.2583C16.2683 18.0546 16.1617 17.9942 16.1626 17.9925C16.1627 17.9923 16.1634 17.9926 16.1648 17.9931ZM26.3409 28.752C26.3403 28.7478 26.3397 28.7435 26.339 28.7392C26.2741 28.3108 26.1871 27.8144 26.0801 27.2667C25.9066 26.379 25.6808 25.3564 25.4119 24.2698C24.3916 20.1465 22.7511 15.1012 21.0001 13C19.5118 13.0884 18.4916 13.6876 17.8468 14.3638C17.7279 14.4885 17.6217 14.6158 17.5278 14.7431C17.1279 15.2846 16.9489 15.8242 16.9461 16.152C18.4277 16.7637 21.4423 21.0968 23.5293 24.9896C24.0165 25.8984 24.4532 26.7833 24.808 27.5912C25.013 28.0578 25.1907 28.4988 25.3349 28.9039C25.3541 28.9578 25.3727 29.0111 25.3908 29.0637C25.5068 29.4027 26.4381 29.0482 26.3409 28.752ZM24.3561 29.0031C24.3709 29.1215 24.398 29.2457 24.4406 29.3754C24.4058 29.2694 24.38 29.1608 24.3633 29.0506C24.361 29.0348 24.3586 29.019 24.3561 29.0031Z" fill="#583A24"/>
<path d="M21.666 13.3473C22.2012 14.0915 21.5836 15.4509 20.2866 16.3838C18.9896 17.3167 17.5043 17.4697 16.9691 16.7255C16.4339 15.9814 17.0514 14.6219 18.3484 13.6891C19.6454 12.7562 21.1308 12.6032 21.666 13.3473Z" fill="#C27A49"/>
<path d="M22.4548 35.6632C24.123 38.5263 21.9939 42.8759 17.6992 45.3783C13.4045 47.8808 8.57053 47.5883 6.90226 44.7252C5.23399 41.862 7.36314 37.5124 11.6578 35.01C15.9525 32.5076 20.7865 32.8 22.4548 35.6632Z" fill="#FFC671"/>
<path fill-rule="evenodd" clip-rule="evenodd" d="M14.0831 38.1546C14.6728 39.0886 14.3938 40.3238 13.4599 40.9136C12.7473 41.3635 12.1971 41.908 11.7815 42.5491C11.1807 43.476 9.94222 43.7402 9.01536 43.1394C8.0885 42.5386 7.8242 41.3001 8.42504 40.3733C9.17046 39.2234 10.1461 38.2754 11.3241 37.5315C12.2581 36.9417 13.4933 37.2207 14.0831 38.1546Z" fill="white"/>
</svg>
