<svg width="44" height="73" viewBox="0 0 44 73" fill="none" xmlns="http://www.w3.org/2000/svg">
<path d="M8.70199 34.8577C5.28978 41.0294 2 41.5001 2 50.7567C2 61.9109 10.9543 70.1396 22 70.1396C33.0457 70.1396 42 62.7804 42 51.6263C42 42.3696 38.3572 41.5 34.6324 35.1542C30.5038 28.1205 33.2661 17.9657 21.5994 17.9657C8.93273 17.9657 12.7178 27.5941 8.70199 34.8577Z" fill="#A4D31F"/>
<path fill-rule="evenodd" clip-rule="evenodd" d="M4.6122 37.448C5.37755 36.422 6.16207 35.3182 6.95169 33.89C7.80713 32.3427 8.27545 30.6179 8.6736 28.7393C8.75979 28.3326 8.84421 27.9083 8.93061 27.474C9.22164 26.011 9.5352 24.4348 10.0152 23.038C10.6678 21.1385 11.711 19.2738 13.6778 17.9316C15.6162 16.6089 18.2004 15.9657 21.5994 15.9657C24.8046 15.9657 27.2752 16.6656 29.1608 18.0502C31.0392 19.4295 32.1001 21.316 32.8149 23.219C33.3443 24.6283 33.7347 26.2061 34.0996 27.6812C34.2113 28.1325 34.3205 28.5743 34.4307 28.9986C34.9251 30.9031 35.4717 32.6331 36.3573 34.1418C37.2246 35.6195 38.0905 36.7855 38.9369 37.8796C39.0703 38.0521 39.2053 38.2253 39.3411 38.3995C40.0454 39.3029 40.7707 40.2332 41.4014 41.2267C43.0093 43.759 44 46.6742 44 51.6263C44 64.0907 33.9327 72.1396 22 72.1396C9.94029 72.1396 0 63.1039 0 50.7567C0 45.843 0.885041 43.0319 2.3643 40.6084C2.92906 39.6831 3.58086 38.8183 4.20769 37.9865C4.34409 37.8056 4.47931 37.6261 4.6122 37.448ZM5.78356 39.219C6.6907 38.0145 7.69097 36.6863 8.70199 34.8577C9.94885 32.6024 10.4437 30.1192 10.9124 27.767C11.9534 22.5433 12.8656 17.9657 21.5994 17.9657C29.6326 17.9657 30.8248 22.7802 32.1361 28.0753C32.7292 30.4703 33.3466 32.9636 34.6324 35.1542C35.7177 37.0032 36.796 38.3872 37.7793 39.6493C40.1707 42.7188 42 45.0667 42 51.6263C42 62.7804 33.0457 70.1396 22 70.1396C10.9543 70.1396 2 61.9109 2 50.7567C2 44.2428 3.6291 42.0796 5.78356 39.219Z" fill="#5B7C14"/>
<path fill-rule="evenodd" clip-rule="evenodd" d="M7.82776 64.6023C9.51938 65.3899 11.3539 65.9664 13.2979 66.2955C24.1887 68.1391 34.2457 62.3777 36.1074 51.38C37.2023 44.9125 35.7906 42.2921 33.945 38.8666C33.1862 37.4581 32.354 35.9135 31.5926 33.9094C30.6904 31.5348 30.4978 28.9734 30.3128 26.513C30.177 24.7074 30.0453 22.9563 29.6403 21.3733C30.9288 23.2003 31.5192 25.5846 32.136 28.0753C32.7291 30.4703 33.3465 32.9637 34.6324 35.1543C35.7176 37.0032 36.7959 38.3872 37.7792 39.6493C40.1707 42.7188 41.9999 45.0667 41.9999 51.6263C41.9999 62.7805 33.0456 70.1396 21.9999 70.1396C16.4618 70.1396 11.4494 68.071 7.82776 64.6023Z" fill="#92BC1B"/>
<path d="M14.2608 36.8882C16.4337 38.1357 16.5259 42.0546 14.4667 45.6412C12.4076 49.2279 8.97681 51.1241 6.8039 49.8766C4.631 48.6291 4.53878 44.7103 6.59794 41.1236C8.6571 37.537 12.0879 35.6407 14.2608 36.8882Z" fill="#BBEB35"/>
<path d="M18.9173 20.1066C19.6993 20.8088 19.3937 22.4243 18.2347 23.7151C17.0757 25.0059 15.5022 25.483 14.7202 24.7809C13.9382 24.0787 14.2439 22.4631 15.4029 21.1724C16.5619 19.8816 18.1353 19.4044 18.9173 20.1066Z" fill="#BBEB35"/>
<path fill-rule="evenodd" clip-rule="evenodd" d="M10.2401 42.093C11.1219 42.7582 11.2975 44.0122 10.6324 44.8941C10.3052 45.3278 10.1311 45.6877 10.0471 45.9735C9.73553 47.0332 8.62389 47.6397 7.56417 47.3281C6.50445 47.0166 5.89796 45.9049 6.20953 44.8452C6.45751 44.0017 6.8884 43.2151 7.43901 42.4852C8.1042 41.6034 9.35829 41.4278 10.2401 42.093Z" fill="white"/>
<path d="M35.9696 6.19195C35.9696 6.19195 32.6661 12.0123 29.1404 13.8708C25.6147 15.7294 21.074 14.0441 21.074 14.0441C21.074 14.0441 22.2495 9.34552 25.7752 7.48697C29.3009 5.62841 35.9696 6.19195 35.9696 6.19195Z" fill="#87D623"/>
<path fill-rule="evenodd" clip-rule="evenodd" d="M37.709 7.1791L35.9696 6.19188L36.138 4.19898C36.8175 4.2564 37.4208 4.65603 37.7388 5.25924C38.0568 5.86244 38.0455 6.58608 37.709 7.1791ZM33.676 6.11158C35.0329 6.11272 35.9696 6.19188 35.9696 6.19188C35.9696 6.19188 35.5056 7.0094 34.7398 8.1295C33.4622 9.99809 31.3447 12.7087 29.1404 13.8707C25.6147 15.7293 21.0739 14.044 21.0739 14.044C21.0739 14.044 22.2495 9.34544 25.7752 7.48689C27.9795 6.32489 31.4125 6.10968 33.676 6.11158ZM21.0739 14.044C19.1337 13.5586 19.1339 13.558 19.134 13.5574L19.1344 13.5561L19.1351 13.5531L19.137 13.5458L19.1421 13.5261C19.1461 13.5107 19.1514 13.4907 19.1579 13.4666C19.1711 13.4182 19.1894 13.3526 19.2133 13.2718C19.261 13.1104 19.3311 12.8869 19.4262 12.6167C19.6155 12.0789 19.9088 11.3426 20.3295 10.5368C21.1496 8.96602 22.5648 6.91836 24.8425 5.71766C27.0263 4.56652 29.9628 4.23735 32.1079 4.1443C33.2264 4.09579 34.2241 4.10896 34.9424 4.13408C35.3026 4.14668 35.5951 4.16237 35.8004 4.17515C35.9031 4.18155 35.9842 4.18723 36.0413 4.19144L36.1085 4.19658L36.1281 4.19816L36.1364 4.19885L36.138 4.19898C36.1384 4.19901 36.138 4.19898 35.9696 6.19188C37.709 7.1791 37.7091 7.17879 37.709 7.1791L37.7082 7.18046L37.704 7.18774L37.6943 7.20478L37.6605 7.26318C37.6318 7.31261 37.5906 7.38272 37.5378 7.47109C37.4324 7.64771 37.28 7.89789 37.0869 8.20216C36.7017 8.80903 36.1487 9.6396 35.4767 10.535C34.1877 12.2521 32.2567 14.4888 30.073 15.64C27.7953 16.8407 25.3062 16.8511 23.5469 16.6401C22.6442 16.5319 21.8711 16.3577 21.3204 16.21C21.0437 16.1358 20.8197 16.0673 20.6596 16.0155C20.5794 15.9895 20.515 15.9676 20.4676 15.9511C20.444 15.9429 20.4246 15.936 20.4096 15.9306L20.3904 15.9236L20.3834 15.921L20.3792 15.9195C20.3786 15.9193 20.378 15.919 21.0739 14.044ZM19.1337 13.5586L21.0739 14.044L20.378 15.919C19.4223 15.5643 18.8863 14.5475 19.1337 13.5586Z" fill="#156319"/>
<path d="M28.8352 13.3344C31.8328 11.7542 34.733 6.97929 34.733 6.97929C27.9167 8.71623 23.4498 12.1537 22.0684 13.6553C22.0684 13.6553 25.8375 14.9146 28.8352 13.3344Z" fill="#79C01E"/>
<path d="M15.637 8.54127C16.9256 9.07323 20.0625 14.0923 20.935 16.6418C21.0078 16.8545 21.5921 16.6321 21.5311 16.4463C21.176 14.0932 19.7488 8.44585 18.1804 6.56371C16.3415 6.67295 15.6414 8.02534 15.637 8.54127Z" fill="#8C5936"/>
<path fill-rule="evenodd" clip-rule="evenodd" d="M14.7668 10.342C14.0737 10.0073 13.6305 9.30098 13.6371 8.52432C13.6448 7.61373 14.1317 6.67837 14.788 6.00448C15.5316 5.24107 16.631 4.65221 18.0618 4.56721C18.6959 4.52954 19.3102 4.79533 19.7168 5.28332C20.2924 5.97403 20.7659 6.88719 21.1509 7.77602C21.5491 8.69526 21.91 9.72508 22.2223 10.7403C22.8291 12.7126 23.2916 14.7582 23.4943 16.0539C23.7276 17.1368 23.0249 17.8755 22.8297 18.0554C22.5299 18.3319 22.2007 18.4902 21.9507 18.5788C21.7063 18.6653 21.3238 18.7609 20.8761 18.7179C20.4479 18.6768 19.4275 18.4138 19.0427 17.2893C18.6818 16.2347 17.7765 14.4979 16.7598 12.9165C16.2605 12.1399 15.7696 11.4563 15.351 10.9552C15.1409 10.7037 14.9715 10.5255 14.8478 10.4122C14.8112 10.3786 14.7843 10.356 14.7668 10.342ZM21.5311 16.4462C21.5307 16.4436 21.5303 16.4409 21.5299 16.4382C21.4601 15.9772 21.3494 15.3909 21.2048 14.7319C20.9442 13.544 20.5734 12.1197 20.1331 10.7669C19.5681 9.03141 18.8887 7.41364 18.1804 6.56369C17.6442 6.59554 17.2048 6.73309 16.8513 6.92478C16.4756 7.12844 16.1969 7.39322 16.0019 7.65728C15.751 7.99704 15.6388 8.3356 15.637 8.54125C16.2545 8.79616 17.2964 10.0814 18.3102 11.6316C19.0194 12.716 19.7148 13.93 20.2416 15.0117C20.5128 15.5687 20.7394 16.0905 20.9 16.5415C20.912 16.5753 20.9237 16.6088 20.935 16.6418C21.0078 16.8545 21.5921 16.6321 21.5311 16.4462ZM19.5419 16.6692C19.5565 16.7964 19.585 16.93 19.6308 17.0696C19.596 16.9636 19.5702 16.855 19.5535 16.7448C19.5498 16.72 19.5459 16.6949 19.5419 16.6692Z" fill="#583A24"/>
<path d="M18.5982 6.78167C18.934 7.24852 18.5465 8.10143 17.7328 8.6867C16.9191 9.27196 15.9872 9.36795 15.6514 8.9011C15.3157 8.43425 15.7031 7.58133 16.5168 6.99607C17.3305 6.4108 18.2624 6.31481 18.5982 6.78167Z" fill="#C27A49"/>
<path d="M34.1739 46.6612C34.1739 47.6217 33.3953 48.4004 32.4348 48.4004C31.4743 48.4004 30.6957 47.6217 30.6957 46.6612C30.6957 45.7008 31.4743 44.9221 32.4348 44.9221C33.3953 44.9221 34.1739 45.7008 34.1739 46.6612Z" fill="#83A918"/>
<path d="M39.3913 50.1395C39.3913 51.1 38.6127 51.8787 37.6522 51.8787C36.6917 51.8787 35.9131 51.1 35.9131 50.1395C35.9131 49.179 36.6917 48.4004 37.6522 48.4004C38.6127 48.4004 39.3913 49.179 39.3913 50.1395Z" fill="#83A918"/>
<path d="M38.5218 44.4873C38.5218 45.2077 37.9378 45.7917 37.2174 45.7917C36.4971 45.7917 35.9131 45.2077 35.9131 44.4873C35.9131 43.767 36.4971 43.183 37.2174 43.183C37.9378 43.183 38.5218 43.767 38.5218 44.4873Z" fill="#83A918"/>
<path d="M39.3913 56.2264C39.3913 57.1869 38.6127 57.9656 37.6522 57.9656C36.6917 57.9656 35.9131 57.1869 35.9131 56.2264C35.9131 55.2659 36.6917 54.4873 37.6522 54.4873C38.6127 54.4873 39.3913 55.2659 39.3913 56.2264Z" fill="#83A918"/>
<path d="M34.1739 52.7483C34.1739 53.7088 33.3953 54.4874 32.4348 54.4874C31.4743 54.4874 30.6957 53.7088 30.6957 52.7483C30.6957 51.7878 31.4743 51.0092 32.4348 51.0092C33.3953 51.0092 34.1739 51.7878 34.1739 52.7483Z" fill="#83A918"/>
<path d="M35.9131 61.444C35.9131 62.4045 35.1344 63.1831 34.1739 63.1831C33.2134 63.1831 32.4348 62.4045 32.4348 61.444C32.4348 60.4835 33.2134 59.7048 34.1739 59.7048C35.1344 59.7048 35.9131 60.4835 35.9131 61.444Z" fill="#83A918"/>
<path d="M30.6957 58.8352C30.6957 59.7957 29.917 60.5743 28.9565 60.5743C27.996 60.5743 27.2174 59.7957 27.2174 58.8352C27.2174 57.8747 27.996 57.0961 28.9565 57.0961C29.917 57.0961 30.6957 57.8747 30.6957 58.8352Z" fill="#83A918"/>
<path d="M31.5652 65.357C31.5652 66.0773 30.9813 66.6613 30.2609 66.6613C29.5405 66.6613 28.9565 66.0773 28.9565 65.357C28.9565 64.6366 29.5405 64.0526 30.2609 64.0526C30.9813 64.0526 31.5652 64.6366 31.5652 65.357Z" fill="#83A918"/>
</svg>
